<svg viewBox="0 0 800 600" fill="none" xmlns="http://www.w3.org/2000/svg">
<path d="M323.475 531C331.883 530.999 340.019 528.039 346.436 522.645C352.852 517.251 357.134 509.774 358.519 501.542L358.547 501.368L358.434 501.233C356.549 498.989 354.964 496.512 353.72 493.863C355.095 495.351 356.652 496.663 358.356 497.766L358.924 498.142L358.957 497.465C358.986 496.881 359 496.301 359 495.741C359.003 492.448 358.545 489.171 357.64 486.004C353.515 471.616 352.81 456.165 355.543 440.081C356.01 437.324 356.245 434.532 356.245 431.735C356.241 419.917 351.998 408.487 344.277 399.49C336.556 390.494 325.86 384.519 314.105 382.636C302.351 380.753 290.304 383.084 280.123 389.213C269.943 395.341 262.292 404.866 258.542 416.083L258.428 416.425L258.764 416.56C261.29 417.621 263.968 418.281 266.701 418.514C263.813 419.174 260.851 419.456 257.889 419.354L257.577 419.344L257.5 419.645C256.507 423.6 256.006 427.66 256.006 431.735L256.008 432.177C256.018 435.298 255.364 438.386 254.09 441.239C252.817 444.093 250.951 446.648 248.616 448.738C244.821 452.165 241.819 456.367 239.817 461.056C237.814 465.744 236.859 470.808 237.017 475.898C237.174 480.988 238.441 485.983 240.729 490.541C243.018 495.099 246.274 499.11 250.274 502.3L250.459 502.448L250.676 502.35C255.251 500.29 258.584 498.046 261.021 495.367C259.396 498.805 257.208 501.952 254.547 504.68L254.203 505.032L254.63 505.279C260.062 508.422 266.237 510.077 272.525 510.075L272.704 510.075C272.767 510.074 272.831 510.074 272.894 510.074C282.512 510.074 291.628 513.766 297.933 520.219C301.253 523.613 305.222 526.315 309.608 528.167C313.994 530.018 318.709 530.981 323.475 531V531Z" fill="#F2F2F2"/>
<path d="M22.7001 481.143C34.5432 481.121 53.1887 482.077 63.3451 487.439C71.1497 491.561 78.2573 496.885 84.4074 503.216C86.7779 505.666 89.0231 508.234 91.1344 510.91C96.9751 490.929 97.6549 469.793 93.1103 449.477C92.7908 448.109 92.8958 446.677 93.4114 445.371C93.9269 444.064 94.8286 442.946 95.996 442.165C97.1634 441.385 98.5411 440.978 99.9453 441.001C101.35 441.023 102.714 441.473 103.855 442.291C120.355 454.323 130.903 474.714 133.469 495.343C136.737 521.626 129.041 548.112 118.344 572.35L118.347 572.362C118.367 572.471 118.397 572.59 118.426 572.709C118.466 572.887 118.515 573.065 118.555 573.243C118.624 573.55 118.703 573.867 118.773 574.174L117.041 574.094C116.942 574.144 116.843 574.184 116.744 574.233H73.3618C72.7869 573.607 72.2514 572.946 71.7582 572.253C66.9577 565.671 64.9685 556.754 62.5433 548.707C60.787 542.88 58.5899 537.195 55.971 531.702C49.3772 517.903 40.2787 505.449 29.1383 494.971C28.7821 494.635 28.4157 494.298 28.0494 493.972C26.1835 492.256 23.2913 489.961 20.4649 487.806C19.8473 487.337 19.3924 486.686 19.1642 485.944C18.936 485.203 18.9459 484.408 19.1926 483.673C19.4393 482.937 19.9104 482.298 20.5395 481.844C21.1687 481.39 21.9243 481.145 22.7001 481.143V481.143Z" fill="#F2F2F2"/>
<path d="M336.055 587C336.21 587 336.36 586.944 336.477 586.843C336.595 586.742 336.671 586.603 336.693 586.451C336.721 586.26 339.409 567.074 336.995 541.576C334.765 518.027 327.606 484.108 306.16 456.252C306.108 456.185 306.044 456.129 305.971 456.087C305.897 456.045 305.816 456.017 305.732 456.006C305.648 455.995 305.563 456 305.481 456.021C305.399 456.043 305.322 456.08 305.254 456.131C305.187 456.182 305.13 456.245 305.088 456.318C305.045 456.39 305.017 456.471 305.006 456.554C304.994 456.637 305 456.722 305.021 456.803C305.043 456.884 305.081 456.96 305.132 457.027C326.393 484.643 333.495 518.312 335.708 541.695C338.108 567.045 335.442 586.081 335.414 586.271C335.401 586.361 335.408 586.454 335.435 586.542C335.461 586.629 335.506 586.711 335.566 586.78C335.627 586.849 335.702 586.904 335.786 586.942C335.871 586.98 335.962 587 336.055 587V587Z" fill="#3F3D56"/>
<path d="M325.36 493C325.495 493 325.627 492.957 325.736 492.877C325.845 492.798 325.927 492.685 325.969 492.556C326.01 492.427 326.01 492.288 325.969 492.159C325.927 492.03 325.846 491.917 325.737 491.837C319.689 487.72 313.157 484.376 306.289 481.88C295.559 477.93 279.243 474.348 262.445 479.725C262.365 479.75 262.291 479.791 262.227 479.846C262.163 479.9 262.11 479.967 262.071 480.042C262.033 480.117 262.009 480.199 262.002 480.283C261.995 480.367 262.005 480.452 262.03 480.532C262.056 480.613 262.096 480.687 262.151 480.752C262.205 480.816 262.271 480.869 262.346 480.908C262.42 480.947 262.502 480.971 262.585 480.978C262.669 480.985 262.753 480.975 262.833 480.95C279.286 475.684 295.307 479.206 305.849 483.088C312.607 485.54 319.035 488.829 324.985 492.877C325.094 492.957 325.225 493 325.36 493V493Z" fill="#3F3D56"/>
<path d="M741.7 0.00377759H518.626C507.861 0.00325039 497.416 3.66532 489.009 10.388C480.601 17.1106 474.731 26.4938 472.364 36.995L359.651 536.949C358.421 542.403 358.4 548.059 359.587 553.521C360.775 558.984 363.143 564.12 366.526 568.571C369.908 573.021 374.224 576.678 379.169 579.284C384.114 581.891 389.57 583.384 395.153 583.659L624.476 594.957C636.755 595.562 648.835 591.678 658.462 584.031C668.088 576.384 674.603 565.495 676.792 553.397L740.734 199.925L745.491 201.284L757.728 134.287L752.832 133.064L770.68 34.3964C771.445 30.1701 771.268 25.8272 770.162 21.6772C769.055 17.5272 767.047 13.6723 764.28 10.3874C761.513 7.10255 758.056 4.46857 754.154 2.67325C750.252 0.877925 746.003 -0.0345075 741.708 0.000997823L741.7 0.00377759Z" fill="#3F3D56"/>
<path d="M547.99 10.7813H521.953C514.475 10.7813 507.222 13.3388 501.398 18.0292C495.574 22.7195 491.529 29.2606 489.935 36.5666L381.743 532.442C381.12 535.297 381.12 538.253 381.744 541.108C382.368 543.963 383.601 546.649 385.359 548.984C387.116 551.318 389.357 553.246 391.928 554.635C394.499 556.024 397.34 556.842 400.256 557.032L628.833 572.014C635.282 572.437 641.66 570.47 646.751 566.49C651.842 562.51 655.29 556.794 656.435 550.434L748.756 37.8989C749.353 34.5816 749.216 31.1736 748.352 27.9154C747.489 24.6571 745.921 21.6281 743.759 19.0421C741.597 16.456 738.894 14.3759 735.84 12.9485C732.787 11.5211 729.457 10.7813 726.087 10.7813H701.386C698.995 10.7812 696.671 11.5693 694.773 13.0235C692.875 14.4778 691.51 16.5171 690.888 18.8257V18.8257C690.34 20.8645 689.134 22.6654 687.458 23.9494C685.781 25.2335 683.729 25.929 681.617 25.9282H564.351C560.217 25.9281 556.236 24.368 553.203 21.5599C550.17 18.7518 548.308 14.9024 547.99 10.7813V10.7813Z" fill="white"/>
<path d="M674.348 357.441C674.792 357.456 675.228 357.311 675.574 357.032C675.92 356.753 676.155 356.359 676.236 355.922L726.784 76.9424C726.832 76.6772 726.822 76.4048 726.756 76.1437C726.689 75.8826 726.567 75.6389 726.397 75.4294C726.229 75.2215 726.017 75.0531 725.777 74.9363C725.537 74.8195 725.274 74.7571 725.006 74.7535L495.031 72.0371H495.01C494.593 72.0406 494.189 72.1859 493.864 72.4489C493.54 72.712 493.315 73.0774 493.225 73.4852L433.635 343.41C433.577 343.673 433.576 343.946 433.633 344.21C433.69 344.474 433.803 344.722 433.965 344.938C434.125 345.152 434.331 345.328 434.567 345.454C434.803 345.58 435.064 345.652 435.331 345.666L674.348 357.441Z" fill="#E6E6E6"/>
<path d="M474.776 375.479C474.567 375.479 474.364 375.55 474.2 375.68C474.036 375.81 473.922 375.991 473.874 376.195L471.72 385.425C471.69 385.556 471.688 385.691 471.715 385.822C471.742 385.954 471.797 386.077 471.876 386.185C471.955 386.293 472.057 386.383 472.174 386.448C472.291 386.512 472.421 386.551 472.555 386.561L594.218 395.208C594.444 395.222 594.667 395.155 594.846 395.017C595.026 394.879 595.149 394.682 595.194 394.46L597.265 383.781C597.29 383.651 597.287 383.518 597.257 383.389C597.226 383.261 597.168 383.141 597.087 383.036C597.006 382.932 596.904 382.846 596.788 382.785C596.671 382.723 596.542 382.687 596.41 382.679L474.833 375.48L474.776 375.479Z" fill="#E6E6E6"/>
<path d="M622.59 429.493C622.809 429.51 623.028 429.449 623.206 429.321C623.385 429.192 623.512 429.004 623.564 428.79L626.201 418.088C626.233 417.957 626.237 417.821 626.211 417.688C626.185 417.556 626.13 417.43 626.051 417.321C625.971 417.212 625.869 417.121 625.751 417.056C625.633 416.99 625.501 416.951 625.367 416.942L469.995 406.075C469.784 406.058 469.574 406.115 469.4 406.236C469.226 406.356 469.1 406.533 469.041 406.736L466.302 415.984C466.263 416.116 466.254 416.255 466.275 416.392C466.297 416.528 466.348 416.657 466.426 416.771C466.504 416.885 466.607 416.98 466.726 417.049C466.845 417.118 466.978 417.16 467.116 417.171L622.59 429.493Z" fill="#E6E6E6"/>
<path d="M614.246 463.795C614.465 463.813 614.684 463.752 614.862 463.623C615.041 463.494 615.168 463.306 615.22 463.093L617.857 452.391C617.889 452.26 617.893 452.123 617.867 451.991C617.841 451.858 617.786 451.733 617.707 451.624C617.627 451.514 617.525 451.424 617.407 451.358C617.289 451.293 617.157 451.254 617.023 451.244L461.651 440.378C461.44 440.361 461.23 440.418 461.056 440.538C460.882 440.659 460.756 440.836 460.697 441.039L457.958 450.287C457.919 450.419 457.91 450.558 457.931 450.694C457.953 450.83 458.004 450.96 458.082 451.074C458.16 451.187 458.263 451.282 458.382 451.351C458.501 451.421 458.634 451.462 458.772 451.473L614.246 463.795Z" fill="#E6E6E6"/>
<path d="M344.862 584.556C344.862 592.315 273.841 593.141 186.431 598.605C99.0982 604.063 28 592.315 28 584.556C28 576.797 99.4301 561.187 186.431 570.508C273.841 579.874 344.862 576.797 344.862 584.556Z" fill="#E6E6E6"/>
<path d="M542.688 522.437C542.909 522.46 543.131 522.402 543.313 522.273C543.494 522.145 543.623 521.954 543.674 521.738L549.249 499.441C549.282 499.31 549.286 499.174 549.261 499.042C549.236 498.91 549.182 498.785 549.104 498.676C549.026 498.566 548.925 498.475 548.808 498.409C548.691 498.342 548.562 498.302 548.428 498.291L453.014 490.266C452.792 490.251 452.571 490.315 452.391 490.447C452.211 490.579 452.084 490.771 452.032 490.988L447.277 512.388C447.248 512.517 447.247 512.65 447.274 512.779C447.301 512.907 447.355 513.029 447.432 513.135C447.509 513.242 447.609 513.331 447.723 513.396C447.837 513.461 447.964 513.501 448.095 513.513L542.688 522.437Z" fill="#0D6EFD"/>
<path d="M157.431 431.574C158.633 430.751 159.639 429.674 160.379 428.42C161.119 427.165 161.575 425.764 161.715 424.314C161.855 422.865 161.675 421.402 161.188 420.029C160.702 418.657 159.92 417.407 158.898 416.37L162.761 330.133L143.093 332.34L144.236 416.692C142.605 418.523 141.702 420.889 141.7 423.342C141.697 425.794 142.594 428.162 144.222 429.996C145.849 431.831 148.093 433.004 150.528 433.295C152.963 433.585 155.419 432.971 157.432 431.57L157.431 431.574Z" fill="#A0616A"/>
<path d="M193.313 577.554L204.507 579.522L215.571 537.28L200.904 534.375L193.313 577.554Z" fill="#A0616A"/>
<path d="M224.272 593.712L189.09 587.527L191.48 573.934L213.069 577.73C216.674 578.364 219.88 580.404 221.981 583.401C224.082 586.398 224.906 590.108 224.272 593.713L224.272 593.712Z" fill="#2F2E41"/>
<path d="M162.587 583.157H173.953L179.36 539.316H162.585L162.587 583.157Z" fill="#A0616A"/>
<path d="M195.87 593.713L160.148 593.715L160.147 579.913L182.067 579.912C185.728 579.912 189.238 581.366 191.827 583.954C194.415 586.542 195.869 590.052 195.87 593.713V593.713Z" fill="#2F2E41"/>
<path d="M210.007 567.443C209.83 567.443 209.652 567.433 209.476 567.412L196.098 566.311C195.489 566.24 194.901 566.045 194.37 565.739C193.838 565.433 193.374 565.022 193.006 564.532C192.639 564.041 192.374 563.481 192.23 562.885C192.085 562.289 192.063 561.669 192.165 561.065L205.445 495.536L197.102 451.523C197.034 451.166 196.839 450.845 196.552 450.62C196.266 450.395 195.908 450.281 195.545 450.299C195.181 450.317 194.836 450.466 194.574 450.718C194.312 450.97 194.149 451.309 194.117 451.672L181.823 563.505C181.708 564.683 181.14 565.77 180.239 566.538C179.338 567.305 178.174 567.693 176.993 567.618L164.389 567.149C163.284 567.071 162.247 566.591 161.472 565.8C160.697 565.009 160.239 563.962 160.184 562.856L161.19 427.715L226.533 419.547L231.098 490.044L231.08 490.119L214.4 563.986C214.16 564.971 213.597 565.846 212.8 566.473C212.004 567.1 211.02 567.441 210.007 567.443V567.443Z" fill="#2F2E41"/>
<path d="M182.739 274.254C195.315 274.254 205.51 264.059 205.51 251.483C205.51 238.908 195.315 228.713 182.739 228.713C170.163 228.713 159.969 238.908 159.969 251.483C159.969 264.059 170.163 274.254 182.739 274.254Z" fill="#A0616A"/>
<path d="M204.194 437.999C200.633 438.02 197.14 437.021 194.129 435.119C183.096 428.225 170.57 430.965 164.084 433.212C163.44 433.438 162.754 433.515 162.076 433.437C161.399 433.36 160.747 433.131 160.171 432.766C159.601 432.408 159.119 431.926 158.762 431.356C158.405 430.786 158.182 430.142 158.109 429.473L146.315 324.132C144.339 306.481 154.971 289.887 171.595 284.674C172.22 284.478 172.855 284.293 173.501 284.118C178.674 282.715 184.092 282.464 189.373 283.38C194.654 284.297 199.671 286.36 204.069 289.424C208.549 292.521 212.296 296.563 215.046 301.265C217.795 305.966 219.481 311.214 219.984 316.637L229.915 422.685C229.982 423.371 229.889 424.064 229.644 424.709C229.398 425.354 229.006 425.932 228.499 426.4C225.017 429.619 214.913 437.998 204.194 437.999Z" fill="#0D6EFD"/>
<path d="M168.277 346.721L141.67 343.796C140.912 343.712 140.182 343.467 139.528 343.076C138.875 342.685 138.313 342.158 137.881 341.53C137.45 340.902 137.158 340.189 137.027 339.439C136.896 338.688 136.929 337.918 137.122 337.182L143.895 311.366C144.095 309.431 144.676 307.554 145.605 305.845C146.534 304.136 147.792 302.628 149.308 301.408C150.823 300.189 152.565 299.281 154.433 298.739C156.301 298.196 158.258 298.029 160.191 298.247C162.124 298.466 163.994 299.065 165.694 300.01C167.394 300.956 168.89 302.229 170.095 303.756C171.3 305.283 172.191 307.033 172.715 308.906C173.24 310.78 173.388 312.738 173.151 314.669L174.157 341.253C174.186 342.015 174.05 342.773 173.759 343.477C173.468 344.182 173.029 344.815 172.472 345.334C171.914 345.853 171.251 346.246 170.528 346.486C169.805 346.725 169.038 346.806 168.281 346.723L168.277 346.721Z" fill="#0D6EFD"/>
<path d="M229.806 427.88C230.899 426.918 231.768 425.728 232.351 424.394C232.934 423.06 233.218 421.614 233.182 420.159C233.146 418.703 232.792 417.273 232.143 415.969C231.495 414.665 230.569 413.52 229.43 412.613L222.872 326.539L203.599 330.878L214.909 414.701C213.511 416.715 212.9 419.172 213.193 421.607C213.486 424.042 214.662 426.284 216.498 427.909C218.335 429.535 220.704 430.429 223.156 430.424C225.608 430.419 227.973 429.513 229.802 427.88H229.806Z" fill="#A0616A"/>
<path d="M196.211 341.31C195.653 340.791 195.214 340.158 194.923 339.454C194.632 338.75 194.497 337.991 194.526 337.23L195.531 310.646C195.315 308.725 195.478 306.78 196.013 304.922C196.548 303.065 197.443 301.33 198.648 299.819C199.853 298.307 201.344 297.047 203.036 296.112C204.727 295.176 206.587 294.583 208.508 294.366C210.429 294.149 212.373 294.313 214.231 294.848C216.089 295.383 217.823 296.278 219.335 297.483C220.846 298.688 222.106 300.179 223.041 301.87C223.977 303.562 224.57 305.422 224.787 307.343L231.56 333.158C231.754 333.895 231.786 334.665 231.655 335.415C231.524 336.166 231.233 336.879 230.801 337.507C230.37 338.134 229.808 338.662 229.154 339.053C228.5 339.444 227.77 339.689 227.013 339.772L200.405 342.698C199.648 342.782 198.881 342.701 198.158 342.461C197.435 342.221 196.772 341.827 196.215 341.308L196.211 341.31Z" fill="#0D6EFD"/>
<path d="M181.385 275.111C180.979 275.111 180.575 275.064 180.18 274.971L180.064 274.943C160.044 271.883 155.619 260.284 154.648 255.441C153.643 250.428 154.787 245.588 157.374 243.708C155.964 239.258 156.19 235.308 158.048 231.969C161.293 226.147 168.321 224.181 169.266 223.937C174.882 219.793 181.602 222.559 182.825 223.12C193.689 219.101 197.844 222.446 198.593 223.193C203.449 224.066 206.409 225.941 207.392 228.771C209.238 234.084 203.401 240.693 203.151 240.972L203.021 241.117L194.325 241.531C193.5 241.571 192.692 241.783 191.955 242.155C191.217 242.526 190.565 243.049 190.042 243.688C189.52 244.328 189.137 245.07 188.92 245.867C188.702 246.664 188.655 247.498 188.78 248.315C189.016 249.368 189.313 250.407 189.67 251.425C191.154 256.066 192.266 260.031 190.833 261.539C190.508 261.83 190.107 262.025 189.677 262.099C189.246 262.174 188.804 262.126 188.399 261.961C187.039 261.597 186.117 261.673 185.657 262.188C184.943 262.984 185.161 265.002 186.271 267.866C186.619 268.772 186.713 269.756 186.542 270.712C186.371 271.667 185.942 272.558 185.301 273.287C184.818 273.856 184.218 274.314 183.542 274.629C182.866 274.943 182.129 275.108 181.383 275.111H181.385Z" fill="#2F2E41"/>
<path d="M267.128 138.517C293.504 138.517 314.886 117.135 314.886 90.7584C314.886 64.3822 293.504 43 267.128 43C240.752 43 219.37 64.3822 219.37 90.7584C219.37 117.135 240.752 138.517 267.128 138.517Z" fill="#FF6584"/>
<path d="M798.891 600H1.10226C0.809631 599.999 0.529281 599.894 0.322659 599.706C0.116037 599.519 0 599.265 0 599C0 598.735 0.116037 598.481 0.322659 598.294C0.529281 598.106 0.809631 598.001 1.10226 598H798.891C799.037 598 799.181 598.025 799.315 598.075C799.45 598.125 799.572 598.199 799.675 598.292C799.778 598.385 799.86 598.495 799.915 598.617C799.971 598.738 800 598.868 800 599C800 599.132 799.971 599.262 799.915 599.383C799.86 599.505 799.778 599.615 799.675 599.708C799.572 599.801 799.45 599.875 799.315 599.925C799.181 599.975 799.037 600 798.891 600V600Z" fill="#CCCCCC"/>
<path d="M353.314 54.1158C330.168 50.9872 303.743 63.4976 297.744 86.0704C296.232 82.0569 293.484 78.628 289.895 76.279C286.307 73.93 282.065 72.7825 277.782 73.0022C273.499 73.222 269.397 74.7977 266.068 77.5017C262.739 80.2057 260.356 83.8979 259.262 88.045L261.912 89.9429C311.513 100.669 362.858 100.437 412.359 89.2627C396.259 72.3422 376.459 57.2443 353.314 54.1158Z" fill="#F0F0F0"/>
<path d="M254.051 117.793C230.905 114.665 204.481 127.175 198.482 149.748C196.97 145.735 194.221 142.306 190.633 139.957C187.045 137.608 182.803 136.46 178.52 136.68C174.236 136.9 170.134 138.475 166.805 141.179C163.476 143.883 161.093 147.576 160 151.723L162.65 153.621C212.251 164.347 263.595 164.115 313.097 152.94C296.997 136.02 277.197 120.922 254.051 117.793Z" fill="#F0F0F0"/>
</svg>
