<svg viewBox="0 0 800 600" fill="none" xmlns="http://www.w3.org/2000/svg">
<path opacity="0.1" d="M256.58 20.9802C277.238 2.57054 309.674 -1.16776 339.191 0.281924C431.917 4.89271 515.616 49.6516 588.013 100.283C614.221 118.612 640.027 138.364 657.04 163.606C691.672 214.996 681.403 286.178 633.241 328.507C616.859 342.91 596.999 353.95 576.603 363.742C540.361 381.145 501.227 395.112 460.078 399.092C430.729 401.924 401.017 399.622 371.849 395.662C290.332 384.615 210.337 360.152 143.283 318.352C113.873 300.01 86.1482 277.211 74.0273 247.533C61.9063 217.855 69.6648 180.284 99.7255 162.7C112.148 155.438 127.001 152.156 141.538 149.075C162.941 144.538 184.686 140.069 203.995 130.854C223.942 121.33 247.566 102.914 243.593 81.86C239.324 59.2289 235.969 39.3428 256.58 20.9802Z" fill="#2271FF"/>
<path opacity="0.1" d="M157.834 107.982C169.51 107.982 178.975 98.5164 178.975 86.8404C178.975 75.1645 169.51 65.6992 157.834 65.6992C146.158 65.6992 136.692 75.1645 136.692 86.8404C136.692 98.5164 146.158 107.982 157.834 107.982Z" fill="#2271FF"/>
<path opacity="0.1" d="M113.544 49.5908C120.773 49.5908 126.632 43.7314 126.632 36.5034C126.632 29.2755 120.773 23.416 113.544 23.416C106.316 23.416 100.457 29.2755 100.457 36.5034C100.457 43.7314 106.316 49.5908 113.544 49.5908Z" fill="#2271FF"/>
<path opacity="0.1" d="M662.194 84.8263C666.642 84.8263 670.248 81.2202 670.248 76.7725C670.248 72.3242 666.642 68.7188 662.194 68.7188C657.747 68.7188 654.141 72.3242 654.141 76.7725C654.141 81.2202 657.747 84.8263 662.194 84.8263Z" fill="#2271FF"/>
<path d="M184.626 327.051L184.377 340.44L182.391 448.972L165.384 488.798L106.772 489.469V333.219L167.941 328.373L184.626 327.051Z" fill="#5F5D7E"/>
<path opacity="0.1" d="M184.626 327.051L184.377 340.44L182.391 448.972L165.384 488.798L106.772 489.469V333.219L167.941 328.373L184.626 327.051Z" fill="black"/>
<path d="M184.626 327.051L184.377 340.44L182.391 448.972L165.384 488.798L169.86 340.695L169.847 340.601L167.941 328.373L184.626 327.051Z" fill="#5F5D7E"/>
<path opacity="0.1" d="M167.941 328.373L184.626 327.051L184.377 340.44L169.847 340.601L106.772 341.306V333.219L167.941 328.373Z" fill="black"/>
<path d="M711.477 333.218V488.569H697.833L643.242 448.75V328.836L692.014 324.252L695.007 325.628L697.833 326.93L711.477 333.218Z" fill="#5F5D7E"/>
<path opacity="0.1" d="M711.477 325.627H697.833V488.568H711.477V325.627Z" fill="black"/>
<path opacity="0.1" d="M711.477 325.628V334.561L697.833 334.715L643.242 335.319V328.836L692.014 324.252L695.007 325.628L697.833 326.93V325.628H711.477Z" fill="black"/>
<path d="M711.477 320.56V333.218L41 340.695V324.587L104.088 311.835L653.087 307.809L711.477 320.56Z" fill="#5F5D7E"/>
<path opacity="0.1" d="M711.477 320.561V333.218L41 340.695V324.587L711.477 320.561Z" fill="black"/>
<path d="M505.837 130.848H301.62C293.162 130.848 286.305 137.705 286.305 146.163V297.876C286.305 306.335 293.162 313.192 301.62 313.192H505.837C514.296 313.192 521.153 306.335 521.153 297.876V146.163C521.153 137.705 514.296 130.848 505.837 130.848Z" fill="#474157"/>
<path d="M502.602 147.297H305.204V296.043H502.602V147.297Z" fill="white"/>
<path d="M407.997 142.706C409.784 142.706 411.232 141.258 411.232 139.471C411.232 137.685 409.784 136.236 407.997 136.236C406.211 136.236 404.762 137.685 404.762 139.471C404.762 141.258 406.211 142.706 407.997 142.706Z" fill="#E6E8EC"/>
<path opacity="0.1" d="M510.26 188.66L507.763 189.191C508.451 188.937 509.155 188.728 509.871 188.566L510.26 188.66Z" fill="black"/>
<path opacity="0.1" d="M556.106 314.997C555.959 314.997 555.818 314.963 555.677 314.937C555.822 314.921 555.97 314.942 556.106 314.997Z" fill="black"/>
<path opacity="0.1" d="M468.307 337.513C468.307 337.513 474.011 339.695 480.052 333.654C486.092 327.614 468.307 337.513 468.307 337.513Z" fill="black"/>
<g opacity="0.1">
<path opacity="0.1" d="M506.737 187.894C507.844 187.674 508.965 187.532 510.093 187.471C508.525 187.375 506.952 187.425 505.395 187.619L506.737 187.894Z" fill="black"/>
<path opacity="0.1" d="M540.388 310.594C538.885 309.178 537.549 307.54 535.616 306.607C533.147 305.413 530.16 305.574 527.341 305.467C523.828 305.338 520.348 304.742 516.992 303.695C516.016 303.453 515.102 303.009 514.308 302.393C512.71 300.983 512.824 298.715 512.965 296.721C513.313 292.134 513.295 287.527 512.912 282.943C512.636 279.708 511.771 275.943 508.448 274.56C506.75 273.849 504.717 273.936 503.079 273.131C500.019 271.614 499.723 267.882 499.851 264.782C499.99 260.857 500.126 256.936 500.26 253.016C500.374 249.801 500.462 246.473 499.073 243.506C497.549 240.251 494.307 237.553 493.978 234.036C493.703 231.103 495.556 228.358 496.207 225.466C497.509 219.647 493.133 213.278 486.697 211.606C484.683 211.083 482.522 210.976 480.515 210.385C478.509 209.794 476.562 208.519 476.146 206.694C475.73 204.868 476.918 203.096 478.441 201.868C479.965 200.64 481.837 199.794 483.435 198.633C485.742 196.999 487.431 194.634 488.227 191.922C488.676 190.297 488.898 188.425 490.341 187.378C491.168 186.865 492.119 186.587 493.093 186.573C492.495 186.573 491.898 186.539 491.307 186.539C489.905 186.539 488.401 186.613 487.28 187.378C485.797 188.425 485.609 190.297 485.166 191.922C484.365 194.634 482.675 196.998 480.368 198.633C478.777 199.794 476.904 200.647 475.381 201.868C473.857 203.09 472.696 204.902 473.079 206.694C473.461 208.486 475.448 209.788 477.455 210.385C479.462 210.982 481.609 211.056 483.636 211.606C490.072 213.278 494.442 219.66 493.14 225.466C492.468 228.358 490.636 231.103 490.918 234.036C491.247 237.553 494.489 240.251 496.012 243.506C497.401 246.473 497.314 249.801 497.2 253.016C497.061 256.936 496.925 260.857 496.791 264.782C496.683 267.882 496.952 271.614 500.012 273.131C501.65 273.936 503.69 273.849 505.381 274.56C508.697 275.943 509.569 279.708 509.838 282.943C510.222 287.527 510.239 292.134 509.891 296.721C509.737 298.735 509.63 300.983 511.234 302.393C512.028 303.009 512.942 303.453 513.918 303.695C517.274 304.743 520.754 305.338 524.267 305.467C527.086 305.574 530.066 305.413 532.543 306.607C534.469 307.54 535.811 309.178 537.315 310.594C541.602 314.522 547.071 316.917 552.865 317.406C553.615 317.496 554.373 317.466 555.113 317.319C549.619 316.685 544.466 314.331 540.388 310.594Z" fill="black"/>
</g>
<path opacity="0.1" d="M436.259 290.354C436.259 290.354 430.89 295.28 431.675 297.293C432.46 299.307 436.259 290.354 436.259 290.354Z" fill="black"/>
<path opacity="0.1" d="M155.256 317.85C171.951 317.85 185.485 316.981 185.485 315.91C185.485 314.839 171.951 313.971 155.256 313.971C138.562 313.971 125.028 314.839 125.028 315.91C125.028 316.981 138.562 317.85 155.256 317.85Z" fill="black"/>
<path d="M180.626 241.104C179.982 241.986 179.467 242.955 179.095 243.983C179.001 244.238 178.908 244.52 178.814 244.795C178.644 244.714 178.467 244.654 178.283 244.614C177.501 244.418 176.692 244.347 175.887 244.406C175.887 244.097 175.928 243.735 175.934 243.426C176.035 239.889 175.619 234.956 172.243 237.043C169.008 239.057 171.317 242.412 173.404 244.567L173.941 245.09C172.035 246.433 171.673 249.607 171.357 252.902C171.042 256.198 168.243 259.809 166.384 261.856C166.196 262.064 166.028 262.252 165.86 262.426C165.11 261.825 164.24 261.39 163.309 261.15C162.377 260.911 161.405 260.872 160.458 261.037C160.384 260.748 160.297 260.446 160.209 260.124C158.706 254.701 155.585 245.298 151.605 243.238L152.129 242.567C153.82 240.352 155.726 237.07 152.914 236.224C150.102 235.379 149.847 239.077 150.001 241.842C150.001 242.191 150.055 242.513 150.082 242.822C149.52 242.849 148.97 242.99 148.464 243.237C147.959 243.484 147.509 243.831 147.142 244.258L146.706 243.748C144.424 241.063 140.243 236.788 138.974 240.016C137.793 243.023 141.478 246.923 144.068 249.184L144.229 249.325C142.491 256.392 150.062 262.164 154.169 264.661L154.699 264.983C149.062 271.627 145.578 284.077 145.578 284.077L161.364 286.896C161.364 286.896 171.834 277.869 170.491 269.386H170.599C181.062 267.292 183.438 256.137 181.807 249.513L181.995 249.439C183.9 248.657 185.569 247.395 186.84 245.775C189.767 241.701 183.619 237.11 180.626 241.104Z" fill="#2271FF"/>
<path opacity="0.1" d="M180.626 241.104C179.982 241.986 179.467 242.955 179.095 243.983C179.001 244.238 178.908 244.52 178.814 244.795C178.644 244.714 178.467 244.654 178.283 244.614C177.501 244.418 176.692 244.347 175.887 244.406C175.887 244.097 175.928 243.735 175.934 243.426C176.035 239.889 175.619 234.956 172.243 237.043C169.008 239.057 171.317 242.412 173.404 244.567L173.941 245.09C172.035 246.433 171.673 249.607 171.357 252.902C171.042 256.198 168.243 259.809 166.384 261.856C166.196 262.064 166.028 262.252 165.86 262.426C165.11 261.825 164.24 261.39 163.309 261.15C162.377 260.911 161.405 260.872 160.458 261.037C160.384 260.748 160.297 260.446 160.209 260.124C158.706 254.701 155.585 245.298 151.605 243.238L152.129 242.567C153.82 240.352 155.726 237.07 152.914 236.224C150.102 235.379 149.847 239.077 150.001 241.842C150.001 242.191 150.055 242.513 150.082 242.822C149.52 242.849 148.97 242.99 148.464 243.237C147.959 243.484 147.509 243.831 147.142 244.258L146.706 243.748C144.424 241.063 140.243 236.788 138.974 240.016C137.793 243.023 141.478 246.923 144.068 249.184L144.229 249.325C142.491 256.392 150.062 262.164 154.169 264.661L154.699 264.983C149.062 271.627 145.578 284.077 145.578 284.077L161.364 286.896C161.364 286.896 171.834 277.869 170.491 269.386H170.599C181.062 267.292 183.438 256.137 181.807 249.513L181.995 249.439C183.9 248.657 185.569 247.395 186.84 245.775C189.767 241.701 183.619 237.11 180.626 241.104Z" fill="black"/>
<path d="M149.203 245.655L147.377 251.057C147.377 251.057 146.35 250.333 145.055 249.192C142.464 246.93 138.78 243.031 139.961 240.024C141.229 236.796 145.411 241.057 147.693 243.755C148.592 244.823 149.203 245.655 149.203 245.655Z" fill="#2271FF"/>
<path d="M153.095 242.574C152.533 243.31 151.933 244.016 151.296 244.688C151.139 243.748 151.029 242.8 150.968 241.849C150.813 239.084 151.108 235.413 153.88 236.232C156.652 237.05 154.76 240.359 153.095 242.574Z" fill="#2271FF"/>
<path d="M176.908 243.425C176.854 245.204 176.679 246.62 176.679 246.62C175.867 245.988 175.097 245.302 174.377 244.566C172.29 242.398 169.981 239.056 173.216 237.043C176.585 234.955 177.002 239.888 176.908 243.425Z" fill="#2271FF"/>
<path d="M187.807 245.755C186.531 247.374 184.856 248.635 182.948 249.413C182.419 249.642 181.876 249.837 181.323 249.997L179.149 246.943C179.379 245.934 179.68 244.943 180.048 243.976C180.419 242.949 180.935 241.98 181.578 241.097C184.599 237.111 190.733 241.701 187.807 245.755Z" fill="#2271FF"/>
<path opacity="0.1" d="M147.672 243.754C148.592 244.821 149.202 245.653 149.202 245.653L147.377 251.056C147.377 251.056 146.35 250.331 145.055 249.19C145.344 247.461 146.059 245.83 147.135 244.445C147.296 244.197 147.491 243.962 147.672 243.754Z" fill="black"/>
<path opacity="0.1" d="M153.095 242.573C152.534 243.309 151.934 244.014 151.297 244.687C151.14 243.746 151.03 242.799 150.968 241.848C151.736 241.86 152.48 242.114 153.095 242.573Z" fill="black"/>
<path d="M162.142 264.024L157.552 266.037C157.552 266.037 156.552 265.554 155.109 264.654C150.283 261.681 140.585 254.211 147.088 245.406C153.592 236.6 159.015 252.399 161.149 260.117C161.827 262.433 162.142 264.024 162.142 264.024Z" fill="#2271FF"/>
<path opacity="0.1" d="M174.371 244.567C175.036 243.875 175.942 243.467 176.901 243.426C176.847 245.204 176.673 246.62 176.673 246.62C175.86 245.989 175.091 245.302 174.371 244.567Z" fill="black"/>
<path opacity="0.1" d="M182.948 249.411C182.419 249.64 181.876 249.835 181.323 249.995L179.149 246.941C179.379 245.932 179.68 244.941 180.048 243.975C181.464 244.807 182.498 246.84 182.948 249.411Z" fill="black"/>
<path d="M171.538 269.365L170.767 269.499C155.377 271.841 165.693 263.539 165.693 263.539C165.693 263.539 166.364 262.902 167.324 261.855C169.183 259.808 171.975 256.217 172.297 252.902C172.78 247.915 173.337 243.237 179.223 244.613C185.028 245.962 186.136 266.445 171.538 269.365Z" fill="#2271FF"/>
<path d="M171.277 307.674H141.874V315.405H171.277V307.674Z" fill="#474157"/>
<path d="M175.619 282.547H137.202V309.527H175.619V282.547Z" fill="#474157"/>
<path opacity="0.1" d="M170.995 307.674H141.592V315.405H170.995V307.674Z" fill="black"/>
<path opacity="0.1" d="M175.498 282.553H137.082V309.533H175.498V282.553Z" fill="black"/>
<path d="M173.21 307.674H143.807V315.405H173.21V307.674Z" fill="#474157"/>
<path opacity="0.1" d="M161.176 260.15C161.847 262.459 162.169 264.05 162.169 264.05L157.579 266.063C157.579 266.063 156.579 265.58 155.136 264.681C156.934 262.379 158.961 260.654 161.176 260.15Z" fill="black"/>
<path opacity="0.1" d="M171.538 269.366L170.767 269.5C155.377 271.842 165.693 263.54 165.693 263.54C165.693 263.54 166.364 262.902 167.324 261.855C170.196 264.178 171.411 266.748 171.538 269.366Z" fill="black"/>
<path d="M146.544 284.077C146.544 284.077 155.162 253.204 167.249 262.734C179.337 272.265 162.33 286.896 162.33 286.896L146.544 284.077Z" fill="#2271FF"/>
<path opacity="0.1" d="M150.894 251.21C151.427 251.21 151.86 250.777 151.86 250.244C151.86 249.71 151.427 249.277 150.894 249.277C150.36 249.277 149.927 249.71 149.927 250.244C149.927 250.777 150.36 251.21 150.894 251.21Z" fill="black"/>
<path opacity="0.1" d="M150.814 255.728C151.347 255.728 151.78 255.295 151.78 254.761C151.78 254.228 151.347 253.795 150.814 253.795C150.28 253.795 149.847 254.228 149.847 254.761C149.847 255.295 150.28 255.728 150.814 255.728Z" fill="black"/>
<path opacity="0.1" d="M178.847 252.097C179.381 252.097 179.814 251.664 179.814 251.131C179.814 250.597 179.381 250.164 178.847 250.164C178.314 250.164 177.881 250.597 177.881 251.131C177.881 251.664 178.314 252.097 178.847 252.097Z" fill="black"/>
<path opacity="0.1" d="M156.29 275.218C156.823 275.218 157.256 274.785 157.256 274.252C157.256 273.718 156.823 273.285 156.29 273.285C155.756 273.285 155.323 273.718 155.323 274.252C155.323 274.785 155.756 275.218 156.29 275.218Z" fill="black"/>
<path opacity="0.1" d="M176.834 259.593C177.367 259.593 177.8 259.16 177.8 258.627C177.8 258.093 177.367 257.66 176.834 257.66C176.3 257.66 175.867 258.093 175.867 258.627C175.867 259.16 176.3 259.593 176.834 259.593Z" fill="black"/>
<path opacity="0.1" d="M166.847 269.581C167.38 269.581 167.813 269.148 167.813 268.615C167.813 268.081 167.38 267.648 166.847 267.648C166.313 267.648 165.88 268.081 165.88 268.615C165.88 269.148 166.313 269.581 166.847 269.581Z" fill="black"/>
<path opacity="0.1" d="M154.196 253.144C154.73 253.144 155.162 252.711 155.162 252.177C155.162 251.644 154.73 251.211 154.196 251.211C153.662 251.211 153.229 251.644 153.229 252.177C153.229 252.711 153.662 253.144 154.196 253.144Z" fill="black"/>
<path opacity="0.1" d="M176.19 255.003C176.723 255.003 177.156 254.57 177.156 254.037C177.156 253.503 176.723 253.07 176.19 253.07C175.656 253.07 175.223 253.503 175.223 254.037C175.223 254.57 175.656 255.003 176.19 255.003Z" fill="black"/>
<path opacity="0.1" d="M172.887 262.493C173.421 262.493 173.854 262.061 173.854 261.527C173.854 260.993 173.421 260.561 172.887 260.561C172.354 260.561 171.921 260.993 171.921 261.527C171.921 262.061 172.354 262.493 172.887 262.493Z" fill="black"/>
<path opacity="0.1" d="M162.733 274.493C163.267 274.493 163.7 274.061 163.7 273.527C163.7 272.993 163.267 272.561 162.733 272.561C162.199 272.561 161.767 272.993 161.767 273.527C161.767 274.061 162.199 274.493 162.733 274.493Z" fill="black"/>
<path opacity="0.1" d="M160.639 269.742C161.172 269.742 161.605 269.309 161.605 268.775C161.605 268.241 161.172 267.809 160.639 267.809C160.105 267.809 159.672 268.241 159.672 268.775C159.672 269.309 160.105 269.742 160.639 269.742Z" fill="black"/>
<path opacity="0.1" d="M155.646 259.031C156.179 259.031 156.612 258.598 156.612 258.064C156.612 257.531 156.179 257.098 155.646 257.098C155.112 257.098 154.679 257.531 154.679 258.064C154.679 258.598 155.112 259.031 155.646 259.031Z" fill="black"/>
<path opacity="0.1" d="M173.21 307.674H143.807V310.499H173.21V307.674Z" fill="black"/>
<path d="M177.552 282.547H139.135V309.527H177.552V282.547Z" fill="#474157"/>
<path opacity="0.1" d="M164.021 278.841C164.555 278.841 164.988 278.408 164.988 277.875C164.988 277.341 164.555 276.908 164.021 276.908C163.488 276.908 163.055 277.341 163.055 277.875C163.055 278.408 163.488 278.841 164.021 278.841Z" fill="black"/>
<path opacity="0.1" d="M158.223 280.05C158.756 280.05 159.189 279.617 159.189 279.084C159.189 278.55 158.756 278.117 158.223 278.117C157.689 278.117 157.256 278.55 157.256 279.084C157.256 279.617 157.689 280.05 158.223 280.05Z" fill="black"/>
<path d="M250.325 385.656C250.325 385.656 255.11 391.918 248.116 401.368C241.123 410.818 235.365 418.818 237.673 424.697C237.673 424.697 248.237 407.14 256.835 406.898C265.432 406.656 259.781 396.22 250.325 385.656Z" fill="#2271FF"/>
<path opacity="0.1" d="M250.325 385.656C250.743 386.26 251.073 386.919 251.305 387.616C259.687 397.468 264.157 406.663 256.097 406.898C248.586 407.133 239.58 420.556 237.418 423.912C237.492 424.173 237.58 424.435 237.673 424.684C237.673 424.684 248.237 407.126 256.835 406.885C265.432 406.643 259.781 396.22 250.325 385.656Z" fill="black"/>
<path d="M259.224 393.643C259.224 395.844 258.975 397.63 258.673 397.63C258.371 397.63 258.123 395.844 258.123 393.643C258.123 391.442 258.432 392.475 258.734 392.475C259.036 392.475 259.224 391.435 259.224 393.643Z" fill="#FFD037"/>
<path d="M262.277 396.274C260.345 397.328 258.66 397.965 258.512 397.697C258.365 397.429 259.814 396.355 261.754 395.301C263.694 394.247 262.922 395.012 263.096 395.301C263.271 395.59 264.217 395.22 262.277 396.274Z" fill="#FFD037"/>
<path d="M225.029 385.656C225.029 385.656 220.244 391.918 227.237 401.368C234.23 410.818 239.989 418.818 237.673 424.697C237.673 424.697 227.116 407.14 218.519 406.898C209.921 406.656 215.572 396.22 225.029 385.656Z" fill="#2271FF"/>
<path opacity="0.1" d="M225.029 385.656C224.611 386.26 224.28 386.919 224.049 387.616C215.666 397.468 211.196 406.663 219.257 406.898C226.767 407.133 235.774 420.556 237.935 423.912C237.862 424.173 237.775 424.431 237.673 424.684C237.673 424.684 227.116 407.133 218.519 406.905C209.921 406.677 215.572 396.22 225.029 385.656Z" fill="black"/>
<path d="M216.129 393.643C216.129 395.844 216.378 397.63 216.68 397.63C216.982 397.63 217.23 395.844 217.23 393.643C217.23 391.442 216.921 392.475 216.619 392.475C216.317 392.475 216.129 391.435 216.129 393.643Z" fill="#FFD037"/>
<path d="M213.075 396.274C215.008 397.328 216.693 397.965 216.841 397.697C216.988 397.429 215.539 396.355 213.599 395.301C211.659 394.247 212.431 395.012 212.257 395.301C212.082 395.59 211.136 395.22 213.075 396.274Z" fill="#FFD037"/>
<path opacity="0.1" d="M237.673 472.61C265.324 472.61 287.741 469.169 287.741 464.925C287.741 460.681 265.324 457.24 237.673 457.24C210.022 457.24 187.605 460.681 187.605 464.925C187.605 469.169 210.022 472.61 237.673 472.61Z" fill="#2271FF"/>
<path d="M263.445 416.266L263.204 418.219L262.868 420.984L262.734 422.132L262.391 424.897L262.251 426.051L261.915 428.81L258.116 460.22C257.774 463.025 253.19 465.206 247.666 465.206H227.72C222.19 465.206 217.653 463.025 217.277 460.22L213.438 428.81L213.102 426.051L212.961 424.897L212.619 422.132L212.485 420.984L212.149 418.219L211.908 416.266C211.713 414.682 214.19 413.34 217.324 413.34H258.036C261.157 413.34 263.64 414.682 263.445 416.266Z" fill="#65617D"/>
<path d="M263.204 418.221L262.868 420.979H212.485L212.149 418.221H263.204Z" fill="#9D9CB5"/>
<path d="M262.734 422.133L262.398 424.898H212.961L212.619 422.133H262.734Z" fill="#9D9CB5"/>
<path d="M262.251 426.045L261.915 428.81H213.438L213.103 426.045H262.251Z" fill="#9D9CB5"/>
<path d="M598.053 153.844C598.053 153.844 583.517 148.653 574.173 169.419C564.828 190.184 550.292 213.027 550.292 213.027L558.598 215.103C558.598 215.103 560.675 200.567 565.866 198.49L563.789 217.18C563.789 217.18 626.087 238.984 654.12 215.103L653.082 207.835C653.082 207.835 657.235 208.873 657.235 215.103L660.35 211.989C660.35 211.989 657.235 205.758 647.89 197.452C641.757 192 639.649 181.629 638.925 175.144C638.382 169.729 636.216 164.604 632.71 160.442C626.5 153.246 615.185 145.596 598.053 153.844Z" fill="#2F2E41"/>
<path d="M605.651 220.416C618.996 220.416 629.812 209.6 629.812 196.255C629.812 182.911 618.996 172.094 605.651 172.094C592.307 172.094 581.49 182.911 581.49 196.255C581.49 209.6 592.307 220.416 605.651 220.416Z" fill="#FFB9B9"/>
<path d="M588.201 206.992C588.201 206.992 586.859 234.509 580.147 236.523C573.436 238.536 554.644 260.684 563.369 267.396C572.094 274.107 622.43 269.409 622.43 269.409L617.732 234.509C617.732 234.509 606.993 227.127 615.718 214.375L588.201 206.992Z" fill="#FFB9B9"/>
<path d="M567.198 199.144C567.198 199.144 575.505 187.723 582.772 185.646C590.04 183.57 591.079 173.187 591.079 173.187C591.079 173.187 609.768 193.953 621.189 194.991C632.61 196.03 622.227 170.072 622.227 170.072L601.461 164.881L581.734 166.957L566.16 177.34L567.198 199.144Z" fill="#2F2E41"/>
<path d="M540.754 115.643H267.177V53.6855H540.754V115.643ZM268.786 114.033H539.144V55.2948H268.786V114.033Z" fill="#3F3D56"/>
<path d="M319.479 74.6055H288.902V105.182H319.479V74.6055Z" fill="#2271FF"/>
<path d="M315.455 101.158H283.27V68.9727H315.455V101.158ZM284.879 99.5488H313.846V70.5821H284.879V99.5488Z" fill="#3F3D56"/>
<path d="M509.373 75.4102H366.147V77.0196H509.373V75.4102Z" fill="#3F3D56"/>
<path d="M509.373 86.6758H366.147V88.2852H509.373V86.6758Z" fill="#3F3D56"/>
<path d="M509.373 97.9414H366.147V99.5508H509.373V97.9414Z" fill="#3F3D56"/>
<path d="M552.929 294.96C554.679 294.96 556.097 293.541 556.097 291.792C556.097 290.042 554.679 288.623 552.929 288.623C551.179 288.623 549.761 290.042 549.761 291.792C549.761 293.541 551.179 294.96 552.929 294.96Z" fill="#D0CDE1"/>
<path d="M436.734 277.962H369.079C367.472 277.96 365.932 277.322 364.795 276.188C363.66 275.053 363.021 273.515 363.02 271.911V245.95C362.88 246.109 362.733 246.266 362.582 246.419V271.911C362.584 273.631 363.269 275.28 364.487 276.496C365.705 277.712 367.356 278.397 369.079 278.399H436.924C436.858 278.254 436.795 278.108 436.734 277.962ZM363.02 182.002C363.021 180.398 363.66 178.859 364.795 177.725C365.932 176.591 367.472 175.953 369.079 175.951H391.621C391.58 175.804 391.54 175.661 391.502 175.514H369.079C367.356 175.516 365.705 176.2 364.487 177.416C363.269 178.633 362.584 180.282 362.582 182.002V221.801C362.733 221.954 362.878 222.111 363.02 222.271V182.002ZM453.862 187.104L439.727 175.927C439.39 175.66 438.971 175.514 438.541 175.514H425.961C425.926 175.661 425.887 175.807 425.845 175.951H438.541C438.873 175.952 439.194 176.063 439.455 176.267L453.591 187.447C453.725 187.553 453.833 187.688 453.908 187.841C453.982 187.995 454.021 188.163 454.02 188.334V253.392C454.166 253.396 454.313 253.407 454.458 253.418V188.334C454.458 188.098 454.405 187.863 454.302 187.651C454.198 187.438 454.048 187.251 453.862 187.104Z" fill="#3F3D56"/>
<path d="M453.675 187.682H442.269C441.857 187.682 441.449 187.6 441.068 187.443C440.687 187.286 440.341 187.055 440.05 186.763C439.758 186.472 439.527 186.127 439.369 185.747C439.212 185.366 439.13 184.959 439.13 184.547V176.138C439.13 176.101 439.14 176.065 439.16 176.033C439.179 176.002 439.208 175.977 439.241 175.961C439.274 175.945 439.311 175.939 439.348 175.943C439.385 175.947 439.419 175.961 439.448 175.984L453.797 187.332C453.829 187.357 453.853 187.392 453.863 187.431C453.875 187.47 453.874 187.512 453.861 187.55C453.847 187.588 453.822 187.622 453.789 187.645C453.756 187.669 453.716 187.682 453.675 187.682Z" fill="#E6E6E6"/>
<path d="M453.676 187.901H442.27C441.38 187.9 440.526 187.547 439.896 186.919C439.267 186.29 438.912 185.437 438.911 184.549V176.139C438.911 176.061 438.933 175.985 438.975 175.919C439.017 175.853 439.076 175.8 439.145 175.766C439.216 175.732 439.294 175.718 439.372 175.727C439.449 175.736 439.523 175.766 439.584 175.814L453.933 187.162C454.001 187.216 454.05 187.289 454.074 187.372C454.098 187.454 454.096 187.542 454.068 187.623C454.039 187.705 453.986 187.775 453.916 187.825C453.846 187.874 453.762 187.901 453.676 187.901ZM439.349 176.186V184.549C439.35 185.322 439.658 186.063 440.205 186.609C440.753 187.156 441.495 187.464 442.27 187.464H453.611L439.349 176.186Z" fill="#3F3D56"/>
<path d="M431.034 202.177H397.481C397.064 202.177 396.666 202.012 396.371 201.718C396.076 201.424 395.911 201.026 395.911 200.61C395.911 200.195 396.076 199.796 396.371 199.502C396.666 199.208 397.064 199.043 397.481 199.043H431.034C431.451 199.043 431.85 199.208 432.144 199.502C432.439 199.796 432.604 200.195 432.604 200.61C432.604 201.026 432.439 201.424 432.144 201.718C431.85 202.012 431.451 202.177 431.034 202.177Z" fill="#CCCCCC"/>
<path d="M437.51 207.466H397.481C397.064 207.466 396.666 207.301 396.371 207.007C396.076 206.714 395.911 206.315 395.911 205.899C395.911 205.484 396.076 205.085 396.371 204.791C396.666 204.497 397.064 204.332 397.481 204.332H437.51C437.926 204.332 438.325 204.497 438.62 204.791C438.914 205.085 439.079 205.484 439.079 205.899C439.079 206.315 438.914 206.714 438.62 207.007C438.325 207.301 437.926 207.466 437.51 207.466Z" fill="#CCCCCC"/>
<path d="M431.034 225.88H397.481C397.064 225.88 396.666 225.715 396.371 225.421C396.076 225.127 395.911 224.729 395.911 224.313C395.911 223.897 396.076 223.498 396.371 223.205C396.666 222.911 397.064 222.746 397.481 222.746H431.034C431.451 222.746 431.85 222.911 432.144 223.205C432.439 223.498 432.604 223.897 432.604 224.313C432.604 224.729 432.439 225.127 432.144 225.421C431.85 225.715 431.451 225.88 431.034 225.88Z" fill="#CCCCCC"/>
<path d="M437.51 231.169H397.481C397.064 231.169 396.666 231.004 396.371 230.71C396.076 230.416 395.911 230.018 395.911 229.602C395.911 229.187 396.076 228.788 396.371 228.494C396.666 228.2 397.064 228.035 397.481 228.035H437.51C437.926 228.035 438.325 228.2 438.62 228.494C438.914 228.788 439.079 229.187 439.079 229.602C439.079 230.018 438.914 230.416 438.62 230.71C438.325 231.004 437.926 231.169 437.51 231.169Z" fill="#CCCCCC"/>
<path d="M431.034 249.582H397.481C397.275 249.582 397.071 249.541 396.88 249.462C396.69 249.383 396.517 249.267 396.371 249.122C396.225 248.977 396.109 248.804 396.031 248.614C395.951 248.424 395.911 248.22 395.911 248.014C395.911 247.808 395.951 247.604 396.031 247.414C396.109 247.224 396.225 247.051 396.371 246.906C396.517 246.761 396.69 246.645 396.88 246.566C397.071 246.488 397.275 246.447 397.481 246.447H431.034C431.451 246.447 431.85 246.612 432.144 246.906C432.439 247.2 432.604 247.598 432.604 248.014C432.604 248.43 432.439 248.828 432.144 249.122C431.85 249.416 431.451 249.582 431.034 249.582Z" fill="#CCCCCC"/>
<path d="M437.51 254.871H397.481C397.275 254.871 397.071 254.83 396.88 254.751C396.69 254.673 396.517 254.557 396.371 254.412C396.225 254.266 396.109 254.093 396.031 253.903C395.951 253.713 395.911 253.51 395.911 253.303C395.911 253.097 395.951 252.894 396.031 252.703C396.109 252.514 396.225 252.341 396.371 252.195C396.517 252.05 396.69 251.934 396.88 251.856C397.071 251.777 397.275 251.736 397.481 251.736H437.51C437.716 251.736 437.92 251.777 438.11 251.856C438.301 251.934 438.474 252.05 438.62 252.195C438.765 252.341 438.881 252.514 438.96 252.703C439.039 252.894 439.079 253.097 439.079 253.303C439.079 253.51 439.039 253.713 438.96 253.903C438.881 254.093 438.765 254.266 438.62 254.412C438.474 254.557 438.301 254.673 438.11 254.751C437.92 254.83 437.716 254.871 437.51 254.871Z" fill="#CCCCCC"/>
<path d="M383.508 208.794C386.572 208.794 389.057 206.314 389.057 203.255C389.057 200.196 386.572 197.717 383.508 197.717C380.444 197.717 377.96 200.196 377.96 203.255C377.96 206.314 380.444 208.794 383.508 208.794Z" fill="#2271FF"/>
<path d="M382.959 205.369C382.834 205.369 382.713 205.329 382.613 205.254L382.607 205.249L381.303 204.254C381.242 204.208 381.191 204.15 381.153 204.084C381.115 204.018 381.09 203.946 381.08 203.87C381.07 203.795 381.075 203.718 381.094 203.644C381.114 203.571 381.148 203.502 381.194 203.442C381.241 203.382 381.298 203.331 381.364 203.293C381.431 203.255 381.503 203.23 381.579 203.22C381.654 203.211 381.731 203.216 381.805 203.235C381.878 203.255 381.947 203.289 382.007 203.336L382.852 203.982L384.848 201.383C384.894 201.322 384.952 201.272 385.018 201.234C385.084 201.196 385.156 201.171 385.231 201.161C385.307 201.151 385.384 201.157 385.457 201.176C385.531 201.195 385.599 201.23 385.66 201.276H385.66L385.647 201.293L385.66 201.276C385.782 201.369 385.862 201.507 385.882 201.659C385.902 201.811 385.861 201.965 385.768 202.087L383.42 205.142C383.366 205.213 383.296 205.27 383.216 205.309C383.136 205.349 383.048 205.369 382.959 205.368V205.369Z" fill="white"/>
<path d="M383.508 232.496C386.572 232.496 389.057 230.016 389.057 226.957C389.057 223.898 386.572 221.418 383.508 221.418C380.444 221.418 377.96 223.898 377.96 226.957C377.96 230.016 380.444 232.496 383.508 232.496Z" fill="#E6E6E6"/>
<path d="M382.959 229.07C382.834 229.07 382.712 229.03 382.612 228.955L382.606 228.951L381.302 227.955C381.18 227.861 381.1 227.724 381.08 227.571C381.06 227.42 381.102 227.265 381.195 227.144C381.288 227.022 381.426 226.942 381.579 226.922C381.731 226.902 381.886 226.943 382.007 227.036L382.852 227.683L384.847 225.084C384.894 225.024 384.951 224.973 385.017 224.935C385.084 224.897 385.156 224.873 385.231 224.863C385.307 224.852 385.384 224.857 385.457 224.877C385.531 224.897 385.599 224.93 385.659 224.977H385.66L385.647 224.994L385.66 224.977C385.782 225.071 385.861 225.208 385.882 225.361C385.902 225.512 385.861 225.666 385.767 225.788L383.42 228.844C383.365 228.914 383.296 228.971 383.216 229.01C383.136 229.049 383.048 229.069 382.959 229.069V229.07Z" fill="white"/>
<path d="M383.508 256.196C386.572 256.196 389.057 253.717 389.057 250.658C389.057 247.599 386.572 245.119 383.508 245.119C380.444 245.119 377.96 247.599 377.96 250.658C377.96 253.717 380.444 256.196 383.508 256.196Z" fill="#E6E6E6"/>
<path d="M382.959 252.771C382.834 252.771 382.713 252.731 382.613 252.656L382.607 252.652L381.303 251.656C381.242 251.609 381.191 251.552 381.153 251.486C381.115 251.42 381.09 251.348 381.08 251.273C381.07 251.197 381.075 251.12 381.094 251.047C381.114 250.973 381.148 250.905 381.194 250.844C381.241 250.784 381.298 250.733 381.364 250.695C381.431 250.657 381.503 250.632 381.579 250.623C381.654 250.613 381.731 250.617 381.805 250.638C381.878 250.657 381.947 250.691 382.007 250.738L382.852 251.384L384.848 248.785C384.894 248.725 384.952 248.674 385.018 248.636C385.084 248.598 385.156 248.573 385.231 248.564C385.307 248.554 385.384 248.558 385.457 248.578C385.531 248.598 385.599 248.632 385.66 248.678H385.66L385.647 248.695L385.66 248.678C385.782 248.771 385.862 248.909 385.882 249.061C385.902 249.213 385.861 249.367 385.768 249.489L383.42 252.545C383.366 252.615 383.296 252.672 383.216 252.711C383.136 252.75 383.048 252.771 382.959 252.771V252.771Z" fill="white"/>
<path d="M461.516 287.207C461.203 287.37 460.884 287.525 460.561 287.671C460.265 287.804 459.966 287.929 459.662 288.045C459.551 288.088 459.438 288.131 459.324 288.173C458.43 288.496 457.512 288.749 456.577 288.929C456.115 289.019 455.646 289.091 455.172 289.143C454.78 289.187 454.384 289.219 453.984 289.237C453.699 289.251 453.415 289.257 453.128 289.257C451.992 289.258 450.858 289.152 449.743 288.941C449.452 288.888 449.167 288.826 448.883 288.757C447.505 288.428 446.171 287.937 444.909 287.294C444.797 287.237 444.683 287.177 444.57 287.119C444.403 287.029 444.239 286.937 444.075 286.84C444.154 286.731 444.239 286.624 444.326 286.519C445.271 285.35 446.452 284.393 447.793 283.71C449.133 283.027 450.603 282.634 452.105 282.555C453.609 282.478 455.112 282.716 456.516 283.257C457.92 283.798 459.194 284.628 460.255 285.693C460.624 286.061 460.965 286.457 461.277 286.874C461.36 286.983 461.439 287.094 461.516 287.207Z" fill="#2271FF"/>
<path d="M453.531 278.351C458.429 278.351 462.399 274.388 462.399 269.498C462.399 264.608 458.429 260.645 453.531 260.645C448.633 260.645 444.662 264.608 444.662 269.498C444.662 274.388 448.633 278.351 453.531 278.351Z" fill="#2F2E41"/>
<path d="M455.889 278.363C459.087 276.617 460.263 272.613 458.515 269.42C456.766 266.227 452.756 265.053 449.557 266.799C446.359 268.545 445.183 272.548 446.931 275.741C448.68 278.935 452.69 280.108 455.889 278.363Z" fill="#A0616A"/>
<path d="M459.659 268.437C458.151 269.475 456.36 270.027 454.529 270.02C455.182 270.472 455.926 270.778 456.709 270.915C454.273 271.437 451.756 271.451 449.315 270.957C448.772 270.87 448.249 270.69 447.767 270.426C447.527 270.292 447.318 270.109 447.153 269.89C446.989 269.67 446.872 269.418 446.812 269.15C446.649 268.225 447.371 267.384 448.122 266.818C449.271 265.964 450.596 265.376 452 265.095C453.405 264.815 454.855 264.85 456.245 265.198C457.152 265.432 458.061 265.827 458.65 266.555C459.239 267.282 459.414 268.404 458.853 269.153L459.659 268.437Z" fill="#2F2E41"/>
<path d="M454.458 253.013C454.313 253.002 454.166 252.994 454.02 252.987C453.724 252.972 453.427 252.965 453.127 252.965C450.146 252.965 447.211 253.697 444.58 255.096C441.95 256.495 439.705 258.519 438.041 260.988C436.379 263.458 435.349 266.298 435.045 269.258C434.741 272.219 435.17 275.208 436.296 277.963C436.355 278.109 436.417 278.256 436.482 278.4C437.986 281.801 440.492 284.663 443.668 286.605L443.784 286.673C443.882 286.732 443.978 286.788 444.075 286.84C444.239 286.939 444.403 287.031 444.57 287.12C444.683 287.179 444.797 287.238 444.909 287.295C446.17 287.938 447.504 288.43 448.882 288.759C449.166 288.828 449.451 288.889 449.742 288.942C450.858 289.153 451.991 289.259 453.127 289.259C453.413 289.259 453.698 289.252 453.985 289.239C454.383 289.222 454.779 289.189 455.171 289.145C455.646 289.093 456.115 289.022 456.578 288.931C457.511 288.751 458.43 288.498 459.324 288.175C459.438 288.132 459.552 288.09 459.661 288.046C459.967 287.93 460.264 287.806 460.56 287.673C460.884 287.526 461.203 287.371 461.516 287.207C464.66 285.563 467.258 283.044 468.997 279.956C469.005 279.939 469.014 279.923 469.024 279.907C470.504 277.244 471.289 274.251 471.306 271.205C471.322 268.158 470.571 265.157 469.119 262.478C467.668 259.798 465.564 257.527 463.001 255.872C460.439 254.219 457.501 253.235 454.458 253.013ZM470.588 274.442C470.237 276.275 469.597 278.04 468.691 279.671C468.676 279.7 468.661 279.728 468.645 279.754C466.942 282.798 464.38 285.275 461.278 286.875C460.967 287.037 460.653 287.189 460.335 287.33C460.07 287.448 459.799 287.561 459.525 287.667C459.411 287.71 459.293 287.756 459.177 287.795C458.405 288.077 457.613 288.303 456.807 288.473C456.211 288.599 455.607 288.695 455 288.757C454.626 288.798 454.248 288.826 453.864 288.839C453.619 288.85 453.374 288.857 453.127 288.857C452.028 288.857 450.931 288.755 449.852 288.551C449.195 288.431 448.545 288.272 447.906 288.075C446.933 287.775 445.988 287.393 445.081 286.932C444.976 286.878 444.871 286.823 444.768 286.767C444.619 286.688 444.471 286.607 444.327 286.522C444.217 286.461 444.108 286.395 444.001 286.332C443.937 286.295 443.876 286.257 443.812 286.218C440.79 284.353 438.392 281.631 436.924 278.4C436.858 278.256 436.795 278.109 436.733 277.963C435.603 275.266 435.157 272.333 435.436 269.423C435.715 266.513 436.709 263.717 438.331 261.283C439.954 258.849 442.154 256.853 444.735 255.472C447.316 254.092 450.199 253.37 453.127 253.369C453.427 253.369 453.724 253.376 454.02 253.393C454.166 253.398 454.313 253.408 454.458 253.419C456.954 253.608 459.383 254.321 461.585 255.512C463.787 256.702 465.711 258.343 467.234 260.328C468.757 262.313 469.843 264.595 470.421 267.027C470.999 269.46 471.056 271.987 470.588 274.442Z" fill="#3F3D56"/>
<path d="M449.039 260.766C448.944 259.764 447.715 259.148 446.753 259.45C445.792 259.753 445.161 260.719 444.97 261.707C444.879 262.123 444.87 262.553 444.945 262.973C445.02 263.392 445.177 263.793 445.408 264.151C445.893 264.849 446.786 265.285 447.619 265.107C448.57 264.905 449.228 263.979 449.417 263.027C449.606 262.075 449.418 261.093 449.232 260.141L449.039 260.766Z" fill="#2F2E41"/>
<path d="M462.568 262.197C462.472 261.196 461.243 260.579 460.282 260.882C459.32 261.185 458.69 262.15 458.499 263.139C458.407 263.555 458.398 263.985 458.473 264.404C458.549 264.824 458.706 265.224 458.936 265.583C459.422 266.281 460.315 266.717 461.148 266.54C462.098 266.337 462.757 265.41 462.945 264.459C463.134 263.506 462.947 262.525 462.76 261.573L462.568 262.197Z" fill="#2F2E41"/>
<path d="M418.428 186.272C415.614 188.071 412.354 189.051 409.013 189.104C405.672 189.157 402.383 188.281 399.513 186.572C400.018 185.634 400.658 184.775 401.411 184.022C402.575 182.854 403.991 181.969 405.551 181.434C407.111 180.898 408.773 180.726 410.409 180.932C412.046 181.138 413.614 181.715 414.992 182.621C416.37 183.526 417.522 184.734 418.359 186.152C418.381 186.191 418.406 186.232 418.428 186.272Z" fill="#2271FF"/>
<path d="M408.181 176.629C413.111 176.629 417.108 172.639 417.108 167.717C417.108 162.795 413.111 158.805 408.181 158.805C403.25 158.805 399.253 162.795 399.253 167.717C399.253 172.639 403.25 176.629 408.181 176.629Z" fill="#2F2E41"/>
<path d="M413.948 174.003C415.708 170.789 414.525 166.759 411.305 165.002C408.085 163.245 404.048 164.426 402.288 167.64C400.527 170.855 401.711 174.885 404.931 176.642C408.151 178.399 412.188 177.218 413.948 174.003Z" fill="#FFB8B8"/>
<path d="M402.011 166.649C403.529 167.694 405.332 168.25 407.176 168.243C406.518 168.698 405.769 169.006 404.981 169.145C407.433 169.67 409.967 169.684 412.424 169.186C412.97 169.099 413.498 168.918 413.982 168.652C414.224 168.517 414.435 168.333 414.6 168.112C414.766 167.891 414.883 167.637 414.944 167.368C415.107 166.437 414.38 165.59 413.625 165.02C412.468 164.16 411.135 163.568 409.721 163.286C408.307 163.004 406.848 163.039 405.449 163.389C404.535 163.624 403.62 164.023 403.027 164.755C402.433 165.488 402.258 166.616 402.823 167.37L402.011 166.649Z" fill="#2F2E41"/>
<path d="M408.728 153.016C403.909 153.021 399.288 154.934 395.88 158.336C392.472 161.738 390.555 166.35 390.549 171.161C390.549 172.629 390.73 174.091 391.087 175.515C391.124 175.662 391.162 175.808 391.201 175.951C392.25 179.79 394.533 183.176 397.701 185.59C400.868 188.005 404.743 189.311 408.728 189.309C412.713 189.309 416.589 188.002 419.757 185.588C422.926 183.175 425.213 179.789 426.265 175.951C426.305 175.805 426.342 175.662 426.377 175.515C427.036 172.842 427.078 170.054 426.5 167.363C425.92 164.671 424.736 162.146 423.036 159.979C421.336 157.811 419.164 156.058 416.685 154.852C414.207 153.645 411.485 153.018 408.728 153.016ZM425.961 175.515C425.926 175.662 425.887 175.808 425.846 175.951C425.107 178.576 423.773 180.996 421.947 183.023C420.121 185.051 417.852 186.631 415.315 187.641C412.779 188.652 410.043 189.065 407.321 188.85C404.598 188.635 401.962 187.796 399.617 186.4C395.718 184.058 392.86 180.322 391.621 175.951C391.58 175.805 391.54 175.662 391.503 175.515C391.138 174.092 390.954 172.63 390.954 171.161C390.956 168.648 391.494 166.163 392.531 163.873C393.568 161.583 395.081 159.539 396.969 157.876C398.857 156.213 401.078 154.97 403.483 154.228C405.889 153.487 408.426 153.264 410.924 153.575C413.422 153.885 415.826 154.722 417.976 156.03C420.126 157.338 421.973 159.088 423.395 161.162C424.816 163.237 425.781 165.589 426.223 168.063C426.665 170.537 426.577 173.078 425.961 175.515Z" fill="#3F3D56"/>
<path d="M359.486 249.211C356.673 251.009 353.413 251.991 350.072 252.044C346.732 252.097 343.442 251.22 340.572 249.512C340.603 249.453 340.636 249.394 340.67 249.338C341.591 247.681 342.932 246.296 344.56 245.321C346.187 244.348 348.043 243.819 349.94 243.789C351.838 243.758 353.71 244.227 355.367 245.149C357.025 246.07 358.41 247.412 359.383 249.038C359.396 249.056 359.408 249.075 359.418 249.093C359.44 249.13 359.465 249.171 359.486 249.211Z" fill="#2271FF"/>
<path d="M358.167 230.656C358.167 232.42 357.643 234.142 356.662 235.608C355.682 237.074 354.287 238.216 352.656 238.891C351.025 239.565 349.23 239.742 347.498 239.397C345.766 239.054 344.175 238.205 342.926 236.958C341.678 235.712 340.828 234.124 340.484 232.395C340.139 230.666 340.316 228.875 340.992 227.246C341.667 225.617 342.812 224.225 344.28 223.246C345.748 222.267 347.474 221.744 349.239 221.744C350.414 221.739 351.577 221.966 352.663 222.411C353.748 222.857 354.735 223.513 355.565 224.342C356.395 225.171 357.052 226.156 357.499 227.24C357.945 228.323 358.173 229.485 358.167 230.656Z" fill="#2F2E41"/>
<path d="M356.234 236.195C356.132 236.451 356.015 236.701 355.882 236.944C355.037 238.487 353.612 239.632 351.921 240.127C350.23 240.622 348.411 240.426 346.865 239.583C346.098 239.165 345.422 238.601 344.874 237.923C344.327 237.244 343.918 236.464 343.672 235.628C343.427 234.792 343.348 233.915 343.441 233.049C343.535 232.182 343.798 231.343 344.217 230.578C344.636 229.814 345.202 229.139 345.882 228.592C346.562 228.046 347.343 227.639 348.181 227.394C349.019 227.149 349.897 227.072 350.764 227.166C351.632 227.26 352.473 227.523 353.239 227.942C354.659 228.717 355.748 229.984 356.299 231.503C356.85 233.023 356.827 234.691 356.234 236.195Z" fill="#A0616A"/>
<path d="M363.021 221.679C362.88 221.526 362.733 221.375 362.582 221.229C360.151 218.823 357.088 217.153 353.747 216.409C350.406 215.666 346.923 215.879 343.698 217.026C340.473 218.172 337.639 220.205 335.522 222.89C333.403 225.575 332.089 228.803 331.728 232.201C331.367 235.599 331.976 239.03 333.483 242.098C334.991 245.166 337.336 247.747 340.248 249.542C343.161 251.337 346.522 252.275 349.945 252.247C353.368 252.218 356.714 251.225 359.596 249.382C360.672 248.692 361.674 247.892 362.582 246.994C362.731 246.847 362.878 246.699 363.021 246.546C366.195 243.182 367.963 238.734 367.963 234.112C367.963 229.491 366.195 225.043 363.021 221.679V221.679ZM362.582 246.419C361.622 247.413 360.548 248.292 359.384 249.039C359.382 249.041 359.379 249.041 359.377 249.043C356.595 250.821 353.371 251.791 350.068 251.843C346.765 251.896 343.512 251.029 340.675 249.34C340.673 249.34 340.673 249.338 340.671 249.338C338.495 248.042 336.621 246.297 335.175 244.219C333.73 242.142 332.747 239.779 332.291 237.291C331.835 234.803 331.918 232.246 332.532 229.793C333.148 227.338 334.281 225.044 335.857 223.064C337.434 221.083 339.416 219.462 341.671 218.309C343.926 217.156 346.402 216.497 348.933 216.378C351.464 216.258 353.991 216.68 356.345 217.615C358.7 218.551 360.826 219.978 362.582 221.801C362.733 221.954 362.878 222.111 363.021 222.271C365.942 225.524 367.558 229.74 367.558 234.11C367.558 238.48 365.942 242.696 363.021 245.95C362.88 246.109 362.733 246.267 362.582 246.419Z" fill="#3F3D56"/>
<path d="M356.475 223.257C356.035 222.511 355.397 221.902 354.632 221.496C353.868 221.089 353.005 220.902 352.14 220.954C351.232 221.022 350.369 221.356 349.521 221.686L345.209 223.365C344.093 223.8 342.872 224.332 342.387 225.425C341.938 226.44 342.273 227.612 342.613 228.669L344.225 233.692C344.447 232.563 344.671 231.424 345.14 230.373C345.609 229.324 346.35 228.355 347.375 227.83C348.494 227.257 349.814 227.269 351.071 227.329C352.852 227.415 354.788 227.641 356.053 228.895C356.725 229.607 357.18 230.494 357.366 231.455C357.549 232.41 357.642 233.38 357.642 234.352C358.372 233.1 358.987 231.783 359.479 230.419C359.884 229.404 360.115 228.328 360.162 227.236C360.172 226.145 359.863 225.02 359.134 224.208C358.406 223.395 357.219 222.956 356.175 223.277" fill="#2F2E41"/>
<path d="M342.879 199.292L342.441 199.286C342.446 198.849 342.459 198.406 342.478 197.969L342.916 197.988C342.896 198.421 342.884 198.859 342.879 199.292Z" fill="#E6E6E6"/>
<path d="M343.108 195.492L342.673 195.445C342.764 194.61 342.884 193.767 343.029 192.942L343.459 193.017C343.316 193.834 343.198 194.667 343.108 195.492ZM343.97 190.569L343.545 190.467C343.743 189.651 343.971 188.831 344.221 188.03L344.639 188.16C344.391 188.953 344.166 189.763 343.97 190.569ZM345.463 185.796L345.055 185.639C345.357 184.856 345.689 184.071 346.042 183.308L346.439 183.491C346.09 184.246 345.762 185.022 345.463 185.796ZM347.562 181.254L347.178 181.046C347.578 180.308 348.008 179.574 348.457 178.862L348.827 179.095C348.384 179.798 347.958 180.525 347.562 181.254ZM350.228 177.021L349.874 176.765C350.366 176.085 350.887 175.411 351.422 174.763L351.76 175.041C351.23 175.682 350.715 176.348 350.228 177.021ZM353.414 173.164L353.095 172.864C353.67 172.253 354.272 171.652 354.886 171.077L355.186 171.395C354.579 171.964 353.983 172.558 353.414 173.164ZM357.066 169.744L356.788 169.407C357.436 168.873 358.111 168.354 358.792 167.862L359.048 168.217C358.374 168.702 357.708 169.216 357.066 169.744ZM361.124 166.819L360.891 166.449C361.603 166.003 362.338 165.573 363.076 165.174L363.285 165.558C362.555 165.953 361.828 166.377 361.124 166.819ZM365.523 164.438L365.34 164.042C366.102 163.691 366.886 163.36 367.67 163.058L367.827 163.466C367.052 163.764 366.276 164.091 365.523 164.438ZM370.189 162.644L370.058 162.227C370.86 161.976 371.682 161.749 372.499 161.551L372.602 161.975C371.794 162.171 370.982 162.396 370.189 162.644ZM375.054 161.464L374.978 161.034C375.805 160.889 376.649 160.77 377.485 160.678L377.533 161.113C376.705 161.203 375.872 161.321 375.054 161.464Z" fill="#E6E6E6"/>
<path d="M380.047 160.919L380.027 160.483C380.466 160.463 380.91 160.451 381.347 160.445L381.353 160.882C380.92 160.888 380.481 160.9 380.047 160.919Z" fill="#E6E6E6"/>
<path d="M344.496 197.886L344.183 197.58L342.674 199.12L341.245 197.506L340.917 197.795L342.658 199.762L344.496 197.886Z" fill="#E6E6E6"/>
<path d="M379.946 162.496L379.639 162.184L381.182 160.678L379.565 159.251L379.856 158.924L381.825 160.661L379.946 162.496Z" fill="#E6E6E6"/>
<path d="M445.417 165.237C445.032 165.035 444.644 164.837 444.252 164.641L444.448 164.25C444.842 164.447 445.233 164.647 445.621 164.851L445.417 165.237Z" fill="#E6E6E6"/>
<path d="M475.155 245.87L474.75 245.705C475.079 244.902 475.396 244.084 475.691 243.272L476.102 243.421C475.805 244.239 475.486 245.062 475.155 245.87ZM476.949 240.936L476.532 240.804C476.794 239.979 477.043 239.138 477.271 238.304L477.693 238.419C477.463 239.259 477.213 240.106 476.949 240.936ZM478.333 235.872L477.906 235.775C478.1 234.931 478.279 234.071 478.436 233.222L478.867 233.302C478.707 234.157 478.528 235.022 478.333 235.872ZM479.295 230.711L478.861 230.649C478.985 229.792 479.091 228.921 479.179 228.061L479.615 228.105C479.526 228.971 479.418 229.849 479.295 230.711ZM479.827 225.488L479.39 225.461C479.442 224.598 479.477 223.722 479.493 222.856L479.931 222.865C479.914 223.736 479.879 224.618 479.827 225.488ZM479.927 220.238L479.489 220.249C479.481 219.868 479.469 219.489 479.454 219.11C479.434 218.623 479.409 218.13 479.378 217.642L479.815 217.615C479.846 218.105 479.872 218.602 479.891 219.092C479.907 219.474 479.918 219.856 479.927 220.238ZM479.16 215.045C479.07 214.185 478.961 213.314 478.836 212.459L479.269 212.395C479.395 213.257 479.505 214.133 479.595 214.999L479.16 215.045ZM478.406 209.887C478.246 209.037 478.066 208.178 477.872 207.334L478.298 207.236C478.494 208.086 478.675 208.95 478.836 209.806L478.406 209.887ZM477.234 204.805C477.004 203.97 476.755 203.129 476.493 202.305L476.909 202.172C477.174 203.002 477.425 203.849 477.655 204.691L477.234 204.805ZM475.65 199.836C475.354 199.022 475.037 198.204 474.708 197.403L475.113 197.237C475.444 198.044 475.763 198.868 476.062 199.687L475.65 199.836ZM473.667 195.01C473.306 194.223 472.923 193.433 472.529 192.662L472.919 192.464C473.315 193.24 473.701 194.035 474.065 194.828L473.667 195.01ZM471.297 190.361C470.872 189.606 470.427 188.85 469.971 188.113L470.344 187.883C470.802 188.625 471.251 189.387 471.678 190.147L471.297 190.361ZM468.554 185.92C468.069 185.202 467.562 184.484 467.048 183.787L467.401 183.528C467.918 184.23 468.428 184.953 468.917 185.676L468.554 185.92ZM465.456 181.717C464.912 181.041 464.348 180.367 463.778 179.715L464.108 179.427C464.682 180.084 465.25 180.763 465.797 181.444L465.456 181.717ZM462.02 177.782C461.423 177.153 460.805 176.528 460.183 175.924L460.488 175.611C461.114 176.219 461.736 176.848 462.337 177.482L462.02 177.782ZM458.27 174.143C457.623 173.565 456.956 172.992 456.285 172.441L456.564 172.104C457.238 172.659 457.911 173.235 458.562 173.817L458.27 174.143ZM454.231 170.823C453.541 170.302 452.829 169.788 452.115 169.294L452.365 168.935C453.084 169.432 453.8 169.95 454.495 170.475L454.231 170.823ZM449.939 167.851C449.208 167.389 448.457 166.934 447.705 166.499L447.925 166.121C448.682 166.559 449.438 167.017 450.174 167.483L449.939 167.851Z" fill="#E6E6E6"/>
<path d="M473.546 249.473L473.152 249.283C473.342 248.89 473.528 248.496 473.709 248.102L474.107 248.283C473.924 248.681 473.738 249.077 473.546 249.473Z" fill="#E6E6E6"/>
<path d="M444.801 166.709L445.214 166.563L444.495 164.532L446.577 163.964L446.461 163.543L443.925 164.235L444.801 166.709Z" fill="#E6E6E6"/>
<path d="M472.321 247.31L472.737 247.174L473.41 249.22L475.405 248.401L475.572 248.805L473.141 249.803L472.321 247.31Z" fill="#E6E6E6"/>
<path d="M496.965 244.456L448.084 204.117C448.084 204.117 415.338 188.456 430.05 177.541C444.761 166.626 455.677 192.727 455.677 192.727L509.304 232.117L496.965 244.456Z" fill="#FFB9B9"/>
<path d="M578.192 240.061L574.797 237.687L525.866 231.895L469.193 200.332L466.172 224.493L514.495 266.44L583.419 269.473L578.192 240.061Z" fill="#2271FF"/>
<path d="M742.639 384.468C740.498 384.164 738.451 383.366 736.672 382.138C734.894 380.911 733.424 379.286 732.377 377.392C731.33 375.498 730.739 373.388 730.645 371.226C730.558 369.065 730.967 366.912 731.847 364.937C732.733 362.962 734.061 361.219 735.733 359.846C737.404 358.473 739.37 357.506 741.484 357.023C743.592 356.54 745.78 356.553 747.887 357.061C749.988 357.569 751.941 358.559 753.599 359.953L749.907 366.133L755.807 362.296C758.015 365.25 758.961 368.961 758.431 372.611C758.256 373.893 757.894 375.143 757.364 376.324C756.129 379.098 754.021 381.394 751.364 382.864C748.706 384.333 745.645 384.896 742.639 384.468Z" fill="#57B894"/>
<path d="M688.56 450.136C692.495 445.305 690.454 438.074 687.576 432.547C684.698 427.02 681.028 421.141 682.293 415.039C684.112 406.271 694.438 402.857 702.787 399.617C708.981 397.212 714.867 394.081 720.323 390.289C722.511 388.769 724.665 387.107 726.189 384.924C728.39 381.779 729.095 377.859 729.712 374.072C731.786 361.46 733.558 348.802 735.028 336.102" stroke="#3F3D56" stroke-miterlimit="10"/>
<path d="M743.001 382.563C740.86 382.259 738.82 381.462 737.035 380.234C735.256 379.006 733.786 377.381 732.739 375.487C731.692 373.594 731.102 371.483 731.008 369.322C730.92 367.16 731.33 365.007 732.216 363.033C733.095 361.058 734.424 359.315 736.095 357.942C737.766 356.568 739.733 355.602 741.847 355.119C743.954 354.635 746.142 354.648 748.249 355.157C750.35 355.666 752.303 356.655 753.961 358.048L750.27 364.228L756.169 360.391C758.377 363.346 759.323 367.056 758.8 370.707C758.619 371.989 758.256 373.238 757.726 374.42C756.491 377.193 754.384 379.489 751.726 380.959C749.068 382.428 746.008 382.992 743.001 382.563Z" stroke="#3F3D56" stroke-miterlimit="10"/>
<path d="M748.853 340.657C749.189 338.34 748.927 335.975 748.108 333.782C747.283 331.59 745.92 329.64 744.148 328.111L739.92 333.602L741.417 326.264C738.779 324.911 735.786 324.429 732.86 324.888C729.933 325.347 727.235 326.724 725.141 328.82C723.048 330.916 721.678 333.622 721.222 336.548C720.772 339.474 721.262 342.468 722.618 345.099C723.98 347.729 726.142 349.859 728.793 351.181C731.437 352.503 734.437 352.95 737.356 352.456C740.276 351.962 742.967 350.552 745.028 348.432C747.095 346.311 748.437 343.589 748.853 340.657Z" fill="#57B894"/>
<path d="M749.337 338.119C749.672 335.8 749.41 333.437 748.592 331.244C747.766 329.051 746.41 327.101 744.632 325.573L740.404 331.064L741.9 323.726C739.263 322.371 736.269 321.89 733.343 322.349C730.417 322.808 727.719 324.186 725.625 326.282C723.531 328.377 722.162 331.084 721.712 334.009C721.256 336.935 721.746 339.929 723.101 342.56C724.464 345.19 726.625 347.32 729.276 348.643C731.92 349.965 734.92 350.411 737.84 349.917C740.759 349.423 743.451 348.013 745.518 345.893C747.578 343.772 748.92 341.05 749.337 338.119Z" stroke="#3F3D56" stroke-miterlimit="10"/>
<path d="M704.885 400.89C701.49 400.406 698.391 398.688 696.18 396.066C693.969 393.444 692.801 390.1 692.898 386.671C692.994 383.242 694.349 379.969 696.703 377.475C699.057 374.981 702.247 373.441 705.665 373.148L704.516 378.787L708.794 373.231C708.807 373.232 708.819 373.233 708.832 373.236C712.497 373.759 715.806 375.718 718.034 378.681C720.256 381.644 721.209 385.369 720.685 389.037C720.162 392.704 718.202 396.012 715.242 398.236C712.276 400.459 708.552 401.414 704.885 400.89Z" fill="#57B894"/>
<path d="M705.474 398.373C702.079 397.888 698.98 396.171 696.77 393.549C694.559 390.926 693.39 387.582 693.487 384.154C693.583 380.725 694.938 377.452 697.292 374.958C699.647 372.464 702.837 370.924 706.254 370.631L705.105 376.269L709.384 370.713C709.396 370.714 709.409 370.715 709.421 370.718C711.237 370.977 712.987 371.592 714.564 372.526C716.142 373.46 717.517 374.697 718.618 376.164C719.719 377.631 720.524 379.301 720.981 381.077C721.43 382.854 721.531 384.703 721.276 386.519C721.014 388.335 720.403 390.082 719.47 391.66C718.531 393.238 717.296 394.618 715.833 395.718C714.363 396.819 712.692 397.62 710.916 398.075C709.14 398.531 707.291 398.632 705.474 398.373Z" stroke="#3F3D56" stroke-miterlimit="10"/>
<path d="M706.805 428.202C704.832 430.725 702.052 432.493 698.93 433.209C695.808 433.924 692.535 433.546 689.66 432.135C686.784 430.724 684.481 428.368 683.137 425.461C681.792 422.554 681.489 419.273 682.276 416.168C683.064 413.064 684.895 410.324 687.463 408.409C690.03 406.495 693.178 405.521 696.378 405.652C699.578 405.783 702.636 407.01 705.04 409.128C707.442 411.246 709.044 414.125 709.575 417.283L699.677 422.622L709.52 422.234C709.106 424.412 708.175 426.459 706.805 428.202Z" fill="#57B894"/>
<path d="M707.169 426.298C705.195 428.821 702.415 430.589 699.293 431.305C696.171 432.021 692.898 431.642 690.023 430.231C687.148 428.82 684.844 426.464 683.5 423.556C682.156 420.65 681.852 417.368 682.64 414.264C683.427 411.159 685.258 408.42 687.826 406.505C690.394 404.591 693.542 403.617 696.742 403.748C699.942 403.879 702.999 405.106 705.403 407.224C707.806 409.341 709.407 412.221 709.938 415.379L700.04 420.717L709.883 420.331C709.469 422.508 708.538 424.555 707.169 426.298Z" stroke="#3F3D56" stroke-miterlimit="10"/>
<path d="M260.465 204.357H214.156V256.036H260.465V204.357Z" fill="#F2F2F2"/>
<path d="M268.519 199.66H222.21V251.339H268.519V199.66Z" stroke="#3F3D56" stroke-miterlimit="10"/>
<path d="M376.574 358.387H330.265V410.065H376.574V358.387Z" fill="#2271FF"/>
<path d="M384.628 353.689H338.319V405.368H384.628V353.689Z" stroke="#3F3D56" stroke-miterlimit="10"/>
<path d="M542.683 523.892C574.746 523.892 600.738 494.415 600.738 458.053C600.738 421.69 574.746 392.213 542.683 392.213C510.62 392.213 484.629 421.69 484.629 458.053C484.629 494.415 510.62 523.892 542.683 523.892Z" fill="#36334A"/>
<path d="M568.187 338.924L480.938 341.608C480.938 341.608 403.756 416.777 467.515 439.596C467.515 439.596 546.039 452.348 564.831 437.583C564.831 437.583 588.321 344.964 568.187 338.924ZM564.16 363.756L470.87 369.797C470.87 369.797 477.582 346.978 504.428 346.978C531.274 346.978 561.475 340.937 564.16 355.031C566.845 369.125 564.16 363.756 564.16 363.756Z" fill="#3F3D56"/>
<path d="M657.45 391.943L542.684 387.917L569.53 274.493C569.53 274.493 676.913 266.439 674.229 293.956C671.544 321.473 657.45 391.943 657.45 391.943Z" fill="#36334A"/>
<path d="M546.656 446.163C546.656 446.163 477.582 458.387 452.75 422.145C427.917 385.903 546.71 405.366 546.71 405.366L556.778 432.883L546.656 446.163Z" fill="#36334A"/>
<path d="M525.905 600C543.326 600 557.449 585.877 557.449 568.456C557.449 551.035 543.326 536.912 525.905 536.912C508.484 536.912 494.361 551.035 494.361 568.456C494.361 585.877 508.484 600 525.905 600Z" fill="#36334A"/>
<path d="M528.925 591.275C539.859 591.275 548.724 581.059 548.724 568.456C548.724 555.853 539.859 545.637 528.925 545.637C517.991 545.637 509.126 555.853 509.126 568.456C509.126 581.059 517.991 591.275 528.925 591.275Z" fill="#3F3D56"/>
<path d="M698.39 271.137C698.39 271.137 672.215 256.372 670.873 291.271L648.725 453.689H658.121L683.624 279.862C683.624 279.862 696.376 281.875 698.39 281.875C700.403 281.875 698.39 271.137 698.39 271.137Z" fill="#3F3D56"/>
<path d="M724.471 289.058C724.229 289.92 723.813 290.721 723.236 291.407C722.665 292.093 721.947 292.648 721.142 293.036C720.336 293.423 719.457 293.634 718.558 293.654C717.665 293.673 716.779 293.501 715.954 293.15L685.592 280.168L691.1 268.035L721.028 281.666C722.383 282.285 723.477 283.37 724.115 284.726C724.746 286.081 724.873 287.617 724.471 289.058Z" fill="#36334A"/>
<path d="M539.999 442.28C539.999 442.28 491.676 436.911 478.253 483.22C464.83 529.529 466.172 565.1 454.763 562.416C443.353 559.731 419.192 550.335 419.192 550.335L421.205 564.429C421.205 564.429 463.488 585.906 470.199 563.087C476.911 540.268 480.938 456.374 519.193 458.388C557.448 460.401 564.16 456.374 564.16 456.374L539.999 442.28Z" fill="#3F3D56"/>
<path d="M448.051 420.133C448.051 420.133 410.467 424.831 395.702 452.348C380.936 479.865 373.554 529.53 373.554 529.53H387.648C387.648 529.53 395.702 430.871 437.984 436.24L448.051 420.133Z" fill="#3F3D56"/>
<path d="M422.548 573.824L362.815 536.911C362.815 536.911 359.46 523.488 397.715 518.119C397.715 518.119 470.043 543.415 463.074 552.915C456.105 562.415 432.615 577.18 422.548 573.824Z" fill="#36334A"/>
<path d="M515.166 453.69V532.214H523.891V452.348L515.166 453.69Z" fill="#3F3D56"/>
<path d="M527.918 502.012C527.918 502.012 544.697 567.784 533.958 577.18C533.958 577.18 519.864 535.569 509.126 540.938L512.482 502.012H527.918Z" fill="#36334A"/>
<path d="M593.355 241.943C604.029 243.756 607.968 231.084 618.654 232.83C620.978 233.306 623.202 234.18 625.227 235.416C633.098 239.869 639.957 245.911 645.367 253.157C650.778 260.404 654.622 268.697 656.655 277.509C657.863 282.893 658.329 288.73 656.056 293.757C654.847 296.428 652.935 298.71 651.023 300.934C643.914 309.202 636.111 317.443 625.967 321.443C624.976 324.875 625.928 328.591 627.116 331.96C632.076 346.026 624.188 361.185 623.785 376.095C623.717 378.645 623.793 381.44 622.199 383.431C620.428 385.642 617.268 386.035 614.44 386.194C588.523 387.654 562.642 383.678 536.989 379.715C536.318 379.668 535.67 379.449 535.108 379.078C534.264 378.404 534.137 377.2 533.957 376.135C533.006 370.502 538.008 365.934 535.636 360.736C531.558 351.8 540.453 342.028 543.019 332.548C545.584 323.066 546.595 321.398 548.388 311.742C549.058 308.131 547.127 297.246 547.717 293.621C549.643 281.781 548.187 268.294 554.428 258.05C558.179 251.895 568.206 239.585 574.898 236.909C581.959 234.085 585.801 242.822 593.355 241.943Z" fill="#2271FF"/>
<path d="M469.86 397.778C462.046 399.285 453.75 400.722 447.737 405.934C444.064 409.118 441.596 413.433 439.198 417.661L414.734 460.793C407.274 473.947 399.809 487.109 393.044 500.635C392.453 501.619 392.107 502.729 392.033 503.875C392.06 505.489 393.145 506.877 394.256 508.048C398.115 512.05 402.856 515.093 408.1 516.937C413.344 518.781 418.946 519.374 424.46 518.668C426.143 509.956 434.425 504.197 438.484 496.306C440.715 491.97 441.611 487.095 443.051 482.436C448.421 465.06 461.17 451.107 473.546 437.782C479.395 431.484 485.383 425.076 492.92 420.943C501.762 416.095 512.021 414.754 521.903 412.74C531.783 410.726 542.014 407.673 549.006 400.407C551.973 397.277 554.208 393.527 555.548 389.427C556.888 385.327 557.3 380.981 556.755 376.703C550.424 376.26 543.38 375.437 537.274 377.473C530.183 379.837 523.323 383.068 516.221 385.484C501.067 390.638 485.577 394.746 469.86 397.778Z" fill="#696880"/>
<path opacity="0.1" d="M469.86 397.778C462.046 399.285 453.75 400.722 447.737 405.934C444.064 409.118 441.596 413.433 439.198 417.661L414.734 460.793C407.274 473.947 399.809 487.109 393.044 500.635C392.453 501.619 392.107 502.729 392.033 503.875C392.06 505.489 393.145 506.877 394.256 508.048C398.115 512.05 402.856 515.093 408.1 516.937C413.344 518.781 418.946 519.374 424.46 518.668C426.143 509.956 434.425 504.197 438.484 496.306C440.715 491.97 441.611 487.095 443.051 482.436C448.421 465.06 461.17 451.107 473.546 437.782C479.395 431.484 485.383 425.076 492.92 420.943C501.762 416.095 512.021 414.754 521.903 412.74C531.783 410.726 542.014 407.673 549.006 400.407C551.973 397.277 554.208 393.527 555.548 389.427C556.888 385.327 557.3 380.981 556.755 376.703C550.424 376.26 543.38 375.437 537.274 377.473C530.183 379.837 523.323 383.068 516.221 385.484C501.067 390.638 485.577 394.746 469.86 397.778Z" fill="black"/>
<path d="M364.391 534.549C363.519 535.173 362.85 536.038 362.464 537.038C361.575 540.064 365.363 542.197 368.395 543.069C375.205 545.03 382.472 546.993 389.265 544.974C393.432 543.735 397.057 541.081 401.196 539.755C407.339 537.787 413.992 538.904 420.342 540.038C421.76 532.056 420.806 523.831 417.597 516.386C415.559 511.686 407.405 509.399 402.549 509.193C397.242 508.967 395.398 512.884 392.335 516.488C384.873 525.266 372.987 527.301 364.391 534.549Z" fill="#3F3D56"/>
<path d="M474.846 410.634C471.092 412.128 467.242 413.683 464.296 416.449C461.186 419.37 459.366 423.377 457.706 427.308C452.801 438.925 448.624 450.837 445.202 462.974C443.472 469.107 441.931 475.311 439.602 481.242C434.952 493.078 427.062 504.414 427.804 517.11C427.799 518.652 428.214 520.167 429.004 521.492C430.057 523.02 431.849 523.831 433.551 524.57L442.476 528.445C447.265 530.524 453.108 532.523 457.387 529.531C460.25 527.529 461.393 523.898 462.257 520.513C465.377 508.287 467.304 495.587 472.893 484.275C479.21 471.489 489.89 461.157 495.541 448.063C496.341 446.21 497.1 444.222 498.673 442.957C499.972 441.912 501.656 441.505 503.282 441.135C536.799 433.503 571.074 429.328 604.323 420.601C609.051 419.361 613.996 417.888 617.368 414.351C622.044 409.446 622.461 401.991 622.61 395.217C622.704 390.972 622.684 386.359 620.098 382.992C617.182 379.195 611.951 378.192 607.189 377.691C588.925 375.77 572.079 378.796 554.09 381.013C537.632 383.041 521.054 392.331 505.7 398.401C495.411 402.468 485.127 406.546 474.846 410.634Z" fill="#696880"/>
<path d="M433.548 531.966C431.038 537.926 428.329 544.152 423.238 548.14C421.111 549.806 418.36 551.474 418.275 554.175C418.185 557.032 421.186 558.918 423.875 559.887C430.723 562.358 438.517 562.886 445.198 559.995C449.768 558.018 453.537 554.601 457.215 551.244C458.322 550.232 459.469 549.165 459.988 547.758C460.343 546.572 460.449 545.327 460.3 544.098C459.859 536.642 458.53 529.266 456.339 522.125C456.169 521.563 441.728 519.763 440.448 520.098C436.416 521.151 435.103 528.274 433.548 531.966Z" fill="#3F3D56"/>
<path d="M658.121 359.059L570.872 361.743C570.872 361.743 493.69 436.912 557.449 459.731C557.449 459.731 635.973 472.483 654.765 457.717C654.765 457.717 678.255 365.099 658.121 359.059ZM654.094 383.891L560.805 389.931C560.805 389.931 567.516 367.112 594.362 367.112C621.208 367.112 651.41 361.072 654.094 375.166C656.779 389.26 654.094 383.891 654.094 383.891Z" fill="#3F3D56"/>
<path d="M638.322 600C686.694 600 725.907 555.528 725.907 500.67C725.907 445.811 686.694 401.34 638.322 401.34C589.95 401.34 550.737 445.811 550.737 500.67C550.737 555.528 589.95 600 638.322 600Z" fill="#36334A"/>
<path d="M642.349 574.496C678.859 574.496 708.457 541.443 708.457 500.67C708.457 459.897 678.859 426.844 642.349 426.844C605.838 426.844 576.241 459.897 576.241 500.67C576.241 541.443 605.838 574.496 642.349 574.496Z" fill="#3F3D56"/>
<path d="M659.463 499.664C659.461 498.376 659.333 497.091 659.08 495.828L708.457 471.14L705.101 463.757L655.223 488.057C654.719 487.539 654.164 487.075 653.566 486.672L653.604 486.68L668.188 414.092L655.287 413.799L646.711 485.234L647.533 485.406C646.867 485.543 646.221 485.764 645.61 486.063L602.472 441.784L596.375 450.334L640.696 491.11C639.585 493.245 638.917 495.582 638.734 497.982L576.241 523.489L574.898 534.228L640.04 506.831C640.647 508.339 641.509 509.73 642.586 510.946L622.55 579.195H629.933L646.751 513.724C647.497 513.964 648.276 514.089 649.06 514.093C650.574 514.079 652.054 513.636 653.326 512.815L688.322 559.06L699.061 551.678L658.056 506.888C658.997 504.596 659.475 502.141 659.463 499.664Z" fill="#36334A"/>
<path d="M576.547 344.956C575.399 344.806 574.231 344.94 573.145 345.344C572.06 345.748 571.09 346.411 570.318 347.275C564.445 352.626 558.22 358.657 557.156 366.53C556.994 367.247 557.079 368 557.4 368.661C557.965 369.588 559.208 369.792 560.293 369.81C563.037 369.838 565.755 369.279 568.266 368.17C570.776 367.061 573.021 365.429 574.849 363.382C575.856 362.239 576.78 360.931 578.162 360.288C579.424 359.818 580.778 359.65 582.117 359.797C585.802 359.918 594.215 361.804 597.427 359.976C600.805 358.054 599.876 352.03 598.299 349.125C594.55 342.22 582.928 344.887 576.547 344.956Z" fill="#FBBEBE"/>
<path d="M585.301 344.628L634.631 331.876C624.228 333.89 627.09 328.686 626.241 329.863C623.57 333.066 618.879 330.613 614.72 330.92C612.312 331.099 610.02 331.989 607.771 332.87L589.328 341.944L585.301 344.628Z" fill="#0043BD"/>
<path d="M657.111 293.095C659.368 300.355 658.046 308.532 661.244 315.429C663.366 320.007 667.357 323.698 668.593 328.59C669.761 333.213 668.196 338.195 665.452 342.095C662.707 345.994 658.887 348.989 655.054 351.827C650.858 354.935 646.501 357.967 641.557 359.648C636.625 361.323 631.341 361.576 626.138 361.815L591.652 363.397L585.301 344.355L607.771 335.554C610.02 334.673 612.312 333.782 614.72 333.604C618.879 333.296 623.952 334.823 626.623 331.62C627.472 330.443 628.011 329.072 628.192 327.633C630.371 316.446 628.475 304.611 631.829 293.719C633.49 288.329 638.28 277.515 644.813 276.563C651.738 275.555 655.545 288.058 657.111 293.095Z" fill="#2472FF"/>
</svg>
