<svg viewBox="0 0 800 600" fill="none" xmlns="http://www.w3.org/2000/svg">
<path d="M395.324 382.5C232.305 508.709 314.439 563 214.662 563C114.885 563 34 482.187 34 382.5C34 282.813 114.885 202 214.662 202C314.439 202 558.343 256.291 395.324 382.5Z" fill="#F2F2F2"/>
<path d="M415.28 434.715C414.852 434.817 414.416 434.912 413.979 435L397 419.942C397.332 419.826 397.719 419.689 398.163 419.536C405.448 416.951 427.146 409.148 448.74 400.262C471.943 390.708 495.034 379.914 500 373C498.935 374.606 466.119 423.324 415.28 434.715Z" fill="#F0F0F0"/>
<path d="M449 104.323H446.576V38.2444C446.576 33.2221 445.582 28.2489 443.65 23.6089C441.718 18.9689 438.887 14.7528 435.318 11.2015C431.748 7.65019 427.511 4.83314 422.848 2.91118C418.184 0.989222 413.186 1.13826e-10 408.139 1.13826e-10H267.437C262.389 -1.22527e-05 257.391 0.989197 252.728 2.91114C248.065 4.83309 243.827 7.65019 240.258 11.2015C236.688 14.7527 233.858 18.9688 231.926 23.6088C229.994 28.2488 229 33.2219 229 38.2443V400.756C229 405.778 229.994 410.751 231.926 415.391C233.857 420.031 236.688 424.247 240.258 427.798C243.827 431.35 248.064 434.167 252.728 436.089C257.391 438.011 262.389 439 267.437 439H408.139C413.186 439 418.184 438.011 422.848 436.089C427.511 434.167 431.748 431.35 435.318 427.798C438.886 424.248 441.718 420.031 443.65 415.391C445.582 410.752 446.576 405.778 446.576 400.756V151.358H449V104.323Z" fill="#3F3D56"/>
<path d="M438 38.5483V400.452C438 404.202 437.26 407.915 435.823 411.379C434.386 414.844 432.279 417.991 429.624 420.642C426.969 423.293 423.817 425.396 420.347 426.83C416.877 428.264 413.159 429.002 409.405 429H268.585C264.831 429 261.114 428.262 257.646 426.828C254.177 425.393 251.026 423.29 248.372 420.639C245.717 417.988 243.612 414.841 242.175 411.377C240.738 407.914 239.999 404.201 240 400.452V38.5483C239.999 34.7991 240.738 31.0867 242.175 27.6229C243.612 24.1592 245.717 21.012 248.372 18.361C251.026 15.7099 254.177 13.6071 257.646 12.1725C261.114 10.7379 264.831 9.99968 268.585 10H285.674C284.835 12.0599 284.516 14.2942 284.744 16.5063C284.973 18.7183 285.743 20.8404 286.985 22.6858C288.227 24.5313 289.905 26.0436 291.87 27.0897C293.835 28.1358 296.026 28.6837 298.253 28.6852H378.539C380.767 28.6873 382.961 28.1417 384.928 27.0966C386.895 26.0515 388.574 24.5389 389.817 22.6924C391.06 20.8459 391.83 18.7222 392.056 16.5087C392.283 14.2951 391.961 12.0598 391.119 10H409.405C413.159 9.99861 416.877 10.7361 420.347 12.1701C423.817 13.6042 426.969 15.7068 429.624 18.3579C432.279 21.009 434.386 24.1566 435.823 27.6209C437.26 31.0852 438 34.7984 438 38.5483Z" fill="white"/>
<path d="M394.83 226H271.17C269.004 225.998 266.927 225.196 265.395 223.77C263.864 222.343 263.002 220.41 263 218.393V214.607C263.002 212.59 263.864 210.656 265.395 209.23C266.927 207.804 269.004 207.002 271.17 207H394.83C396.996 207.002 399.073 207.804 400.604 209.23C402.136 210.656 402.998 212.59 403 214.607V218.393C402.998 220.41 402.136 222.343 400.604 223.77C399.073 225.196 396.996 225.998 394.83 226Z" fill="#F0F0F0"/>
<path d="M394.83 261H271.17C269.004 260.998 266.927 260.196 265.395 258.77C263.864 257.343 263.002 255.41 263 253.393V249.607C263.002 247.59 263.864 245.657 265.395 244.23C266.927 242.804 269.004 242.002 271.17 242H394.83C396.996 242.002 399.073 242.804 400.604 244.23C402.136 245.657 402.998 247.59 403 249.607V253.393C402.998 255.41 402.136 257.343 400.604 258.77C399.073 260.196 396.996 260.998 394.83 261Z" fill="#F0F0F0"/>
<path d="M400.411 219H276.589C274.312 218.998 272.129 218.103 270.519 216.511C268.908 214.92 268.002 212.762 268 210.512V206.488C268.002 204.238 268.908 202.08 270.519 200.489C272.129 198.897 274.312 198.002 276.589 198H400.411C402.688 198.002 404.871 198.897 406.481 200.489C408.091 202.08 408.998 204.238 409 206.488V210.512C408.998 212.762 408.091 214.92 406.481 216.511C404.871 218.103 402.688 218.998 400.411 219ZM276.589 199.617C274.746 199.618 272.978 200.344 271.675 201.631C270.371 202.92 269.638 204.666 269.636 206.488V210.512C269.638 212.334 270.371 214.08 271.675 215.369C272.978 216.657 274.746 217.382 276.589 217.383H400.411C402.254 217.382 404.022 216.657 405.325 215.369C406.629 214.08 407.361 212.334 407.364 210.512V206.488C407.361 204.666 406.629 202.92 405.325 201.631C404.022 200.344 402.254 199.618 400.411 199.617H276.589Z" fill="#3F3D56"/>
<path d="M400.411 254H276.589C274.312 253.997 272.129 253.102 270.519 251.511C268.908 249.919 268.002 247.762 268 245.512V241.488C268.002 239.237 268.908 237.08 270.519 235.489C272.129 233.898 274.312 233.002 276.589 233H400.411C402.688 233.002 404.871 233.898 406.481 235.489C408.091 237.08 408.998 239.237 409 241.488V245.512C408.998 247.762 408.091 249.919 406.481 251.511C404.871 253.102 402.688 253.997 400.411 254ZM276.589 234.617C274.746 234.619 272.978 235.343 271.675 236.631C270.371 237.92 269.638 239.667 269.636 241.488V245.512C269.638 247.333 270.371 249.08 271.675 250.368C272.978 251.657 274.746 252.381 276.589 252.383H400.411C402.254 252.381 404.022 251.657 405.325 250.368C406.629 249.08 407.361 247.333 407.364 245.512V241.488C407.361 239.667 406.629 237.92 405.325 236.631C404.022 235.343 402.254 234.619 400.411 234.617H276.589Z" fill="#3F3D56"/>
<path d="M438 38.5352V117.218C425.5 120.508 412.413 120.885 399.744 118.322C387.076 115.758 375.164 110.322 364.926 102.432C354.687 94.5413 346.395 84.407 340.687 72.8078C334.979 61.209 332.007 48.4551 332 35.5273C332 33.2196 332.092 30.9362 332.277 28.6767H378.655C380.879 28.6788 383.069 28.1334 385.032 27.0888C386.995 26.0442 388.671 24.5323 389.911 22.6866C391.152 20.841 391.92 18.7182 392.146 16.5057C392.373 14.2932 392.051 12.0589 391.211 10H409.461C413.208 9.99861 416.919 10.7357 420.381 12.1691C423.844 13.6025 426.99 15.7042 429.64 18.3541C432.29 21.004 434.393 24.1501 435.827 27.6129C437.261 31.0756 438 34.7871 438 38.5352Z" fill="#F0F0F0"/>
<path d="M311 424.068C311 425.733 310.938 427.376 310.804 429H268.524C264.778 429 261.068 428.259 257.608 426.82C254.146 425.381 251.003 423.272 248.354 420.612C245.704 417.953 243.604 414.796 242.17 411.321C240.737 407.846 239.999 404.122 240 400.361V361.527C248.862 360.37 257.869 361.123 266.419 363.735C274.969 366.347 282.867 370.76 289.585 376.677C296.304 382.596 301.688 389.883 305.381 398.055C309.073 406.227 310.989 415.095 311 424.068Z" fill="#0D6EFD"/>
<path d="M194 148.368L166.802 128L146 154.632L173.198 175L194 148.368Z" fill="#F0F0F0"/>
<path d="M528 77.3684L500.802 57L480 83.6316L507.198 104L528 77.3684Z" fill="#F0F0F0"/>
<path d="M683.597 165.84C687.941 165.837 692.225 166.834 696.106 168.752C699.987 170.67 703.358 173.456 705.949 176.886L722 156.239L673.837 120L637 167.381L657.758 183C659.836 177.931 663.405 173.59 668.009 170.532C672.614 167.475 678.042 165.841 683.597 165.84Z" fill="#F0F0F0"/>
<path d="M359.727 304H300.273C298.08 303.998 295.977 303.153 294.427 301.652C292.875 300.151 292.002 298.116 292 295.993V292.007C292.002 289.884 292.875 287.849 294.427 286.348C295.977 284.847 298.08 284.002 300.273 284H359.727C361.92 284.002 364.023 284.847 365.573 286.348C367.125 287.849 367.998 289.884 368 292.007V295.993C367.998 298.116 367.125 300.151 365.573 301.652C364.023 303.153 361.92 303.998 359.727 304Z" fill="#0D6EFD"/>
<path d="M365.52 296H307.48C305.232 295.998 303.076 295.102 301.487 293.511C299.896 291.92 299.002 289.763 299 287.512V283.488C299.002 281.237 299.896 279.081 301.487 277.489C303.076 275.898 305.232 275.002 307.48 275H365.52C367.768 275.002 369.924 275.898 371.513 277.489C373.104 279.081 373.998 281.237 374 283.488V287.512C373.998 289.763 373.104 291.92 371.513 293.511C369.924 295.102 367.768 295.998 365.52 296ZM307.48 276.617C305.66 276.619 303.915 277.343 302.628 278.632C301.341 279.92 300.617 281.667 300.615 283.488V287.512C300.617 289.333 301.341 291.08 302.628 292.368C303.915 293.657 305.66 294.381 307.48 294.383H365.52C367.34 294.381 369.085 293.657 370.372 292.368C371.659 291.08 372.383 289.333 372.385 287.512V283.488C372.383 281.667 371.659 279.92 370.372 278.632C369.085 277.343 367.34 276.619 365.52 276.617H307.48Z" fill="#3F3D56"/>
<path d="M383 357C389.075 357 394 352.298 394 346.5C394 340.701 389.075 336 383 336C376.925 336 372 340.701 372 346.5C372 352.298 376.925 357 383 357Z" fill="#0D6EFD"/>
<path d="M405.218 310.377C424.946 331.57 437.297 358.261 440.516 386.659C441.167 392.747 441.283 398.977 439.951 404.99C438.607 410.841 435.674 416.237 431.457 420.615C427.609 424.774 423.177 428.595 420.437 433.589C417.549 438.855 417.476 444.816 419.513 450.377C422.006 457.181 426.868 462.708 431.815 467.954C437.309 473.778 443.109 479.742 445.48 487.494C445.766 488.433 447.25 487.945 446.963 487.008C442.841 473.521 429.285 465.93 422.764 453.801C419.721 448.141 418.415 441.556 421.194 435.544C423.623 430.287 428.189 426.343 432.123 422.165C436.253 417.777 439.41 412.973 441.015 407.188C442.656 401.271 442.792 395.023 442.304 388.945C441.09 375.172 437.655 361.67 432.123 348.933C425.892 334.362 417.141 320.935 406.247 309.23C405.573 308.506 404.548 309.658 405.218 310.377Z" fill="white"/>
<path d="M433.604 418.561C424.891 413.648 418.431 405.769 415.511 396.495C415.222 395.576 413.749 396.053 414.037 396.971C417.094 406.616 423.835 414.803 432.913 419.896C433.779 420.381 434.465 419.043 433.604 418.561Z" fill="white"/>
<path d="M424.079 335.728C422.49 336.744 420.735 337.222 418.972 337.118C417.208 337.014 415.492 336.332 413.977 335.135C413.201 334.517 412.583 336.187 413.354 336.799C415.032 338.113 416.928 338.862 418.876 338.983C420.824 339.103 422.765 338.59 424.528 337.488C424.701 337.403 424.843 337.234 424.925 337.015C425.006 336.796 425.022 336.545 424.969 336.311C424.909 336.078 424.782 335.886 424.615 335.778C424.448 335.668 424.256 335.65 424.079 335.728Z" fill="white"/>
<path d="M688 527.367C688 549.559 606.611 600 499.309 600C392.007 600 299 549.559 299 527.367C299 521.817 308.111 528.71 317.934 523.908C346.531 509.907 414.723 520.228 492.119 519.652C494.507 519.631 496.903 519.619 499.309 519.619C606.611 519.619 688 505.176 688 527.367Z" fill="#3F3D56"/>
<path opacity="0.1" d="M688 527.367C688 549.559 606.611 600 499.309 600C392.007 600 299 549.559 299 527.367C299 521.817 308.111 528.71 317.934 523.908C346.531 509.907 414.723 520.228 492.119 519.652C494.507 519.631 496.903 519.619 499.309 519.619C606.611 519.619 688 505.176 688 527.367Z" fill="black"/>
<path d="M688 527C688 549.086 600.92 567 493.5 567C386.08 567 299 549.086 299 527C299 521.476 304.435 516.222 314.269 511.443C342.899 497.508 408.82 487.605 486.301 487.033C488.692 487.011 491.092 487 493.5 487C600.92 487 688 504.913 688 527Z" fill="#3F3D56"/>
<path d="M503.5 491C529.181 491 550 467.271 550 438C550 408.729 529.181 385 503.5 385C477.819 385 457 408.729 457 438C457 467.271 477.819 491 503.5 491Z" fill="#36334A"/>
<path d="M523.435 342L453.185 344.172C453.185 344.172 381.117 412.152 432.453 430.619C432.453 430.619 505.602 433.79 520.732 421.84C520.732 421.84 539.646 346.889 523.435 342ZM520.192 362.096L445.079 366.984C445.079 366.984 450.482 348.517 472.098 348.517C493.713 348.517 518.03 343.629 520.192 355.035C522.354 366.441 520.192 362.096 520.192 362.096Z" fill="#3F3D56"/>
<path d="M595.445 385L503 381.773L524.625 290.88C524.625 290.88 611.122 284.425 608.96 306.477C606.798 328.528 595.445 385 595.445 385Z" fill="#36334A"/>
<path d="M506.898 428.429C506.898 428.429 451.609 438.107 431.732 409.415C411.856 380.723 506.942 396.132 506.942 396.132L515 417.917L506.898 428.429Z" fill="#36334A"/>
<path d="M490 552C503.807 552 515 540.583 515 526.5C515 512.417 503.807 501 490 501C476.193 501 465 512.417 465 526.5C465 540.583 476.193 552 490 552Z" fill="#36334A"/>
<path d="M492.5 545C501.613 545 509 536.717 509 526.5C509 516.283 501.613 508 492.5 508C483.387 508 476 516.283 476 526.5C476 536.717 483.387 545 492.5 545Z" fill="#3F3D56"/>
<path d="M628.292 288.489C628.292 288.489 607.584 276.639 606.522 304.648L589 435H596.434L616.611 295.492C616.611 295.492 626.699 297.108 628.292 297.108C629.885 297.108 628.292 288.489 628.292 288.489Z" fill="#3F3D56"/>
<path d="M649.813 302.411C649.617 303.085 649.273 303.71 648.802 304.245C648.333 304.781 647.748 305.214 647.088 305.517C646.429 305.819 645.708 305.984 644.977 305.999C644.245 306.015 643.518 305.88 642.845 305.606L618 295.471L622.507 286L646.993 296.64C648.107 297.124 649.002 297.971 649.519 299.029C650.036 300.087 650.14 301.287 649.813 302.411Z" fill="#36334A"/>
<path d="M500.833 426.152C500.833 426.152 462.5 421.865 451.851 458.842C441.204 495.819 442.268 524.222 433.218 522.078C424.166 519.935 405 512.432 405 512.432L406.598 523.686C406.598 523.686 440.139 540.835 445.463 522.614C450.787 504.393 453.982 437.405 484.329 439.013C514.676 440.621 520 437.405 520 437.405L500.833 426.152Z" fill="#3F3D56"/>
<path d="M407.056 531.61L359.06 502.049C359.06 502.049 356.363 491.299 387.103 487C387.103 487 445.219 507.257 439.62 514.865C434.02 522.473 415.145 534.298 407.056 531.61Z" fill="#36334A"/>
<path d="M496.345 361C497.822 362.614 525 388.558 525 388.558C525 388.558 522.3 406.667 493.22 408.915L444.756 412.66C444.756 412.66 435.596 446.39 424.704 457.169C413.812 467.948 418.81 468.549 414.722 473.803C410.636 479.057 416.372 480.465 410.168 480.975C403.963 481.486 391.143 473.959 391.004 468.137C390.864 462.315 394.484 458.979 396.092 457.498C397.701 456.015 401.781 441.843 404.227 438.845C406.673 435.849 415.931 399.796 415.931 399.796C415.931 399.796 425.173 382.355 437.985 380.964C450.797 379.572 465.052 373.32 465.052 373.32" fill="#2F2E41"/>
<path opacity="0.1" d="M496.345 361C497.822 362.614 525 388.558 525 388.558C525 388.558 522.3 406.667 493.22 408.915L444.756 412.66C444.756 412.66 435.596 446.39 424.704 457.169C413.812 467.948 418.81 468.549 414.722 473.803C410.636 479.057 416.372 480.465 410.168 480.975C403.963 481.486 391.143 473.959 391.004 468.137C390.864 462.315 394.484 458.979 396.092 457.498C397.701 456.015 401.781 441.843 404.227 438.845C406.673 435.849 415.931 399.796 415.931 399.796C415.931 399.796 425.173 382.355 437.985 380.964C450.797 379.572 465.052 373.32 465.052 373.32" fill="black"/>
<path d="M449 273.741C449 273.741 439.221 247.209 432.528 255.663C425.835 264.117 443.298 278 443.298 278L449 273.741Z" fill="#A0616A"/>
<path d="M502 288.605L496.332 286.13C496.332 286.13 485.927 293.387 485.241 295.743C484.556 298.098 486.041 297.274 481.953 299.347C477.866 301.419 466.701 306.437 465.217 307.261C463.733 308.086 446.928 277.406 450.947 273C450.947 273 443.425 275.799 440 274.738C440 274.738 448.549 317.509 449.85 323.305C451.151 329.101 454.187 329.784 459.849 329.997C465.511 330.209 499.897 319.799 499.897 319.799L502 288.605Z" fill="#0D6EFD"/>
<path d="M411.412 471.434C411.412 471.434 411.121 477.592 412.117 478.3C413.113 479.008 419.27 493.99 409.787 495.435C400.304 496.88 395.097 494.999 392.804 495.795C390.511 496.591 352.711 493.373 353.002 487.215C353.293 481.058 372.193 482.666 372.193 482.666C372.193 482.666 390.914 473.54 394.419 467.848C397.925 462.155 411.412 471.434 411.412 471.434Z" fill="#2F2E41"/>
<path opacity="0.1" d="M411.412 471.434C411.412 471.434 411.121 477.592 412.117 478.3C413.113 479.008 419.27 493.99 409.787 495.435C400.304 496.88 395.097 494.999 392.804 495.795C390.511 496.591 352.711 493.373 353.002 487.215C353.293 481.058 372.193 482.666 372.193 482.666C372.193 482.666 390.914 473.54 394.419 467.848C397.925 462.155 411.412 471.434 411.412 471.434Z" fill="black"/>
<path d="M431 503.309C431 503.309 425.248 528.252 421.029 527.998C416.81 527.743 387.024 513.315 383.36 510.458C378.654 506.788 378.84 500.304 384.241 501.666C389.642 503.028 404.92 501.806 407.516 499.06L414.194 492L431 503.309Z" fill="#2F2E41"/>
<path d="M491.021 363C492.612 364.499 541 405.576 541 405.576C541 405.576 539.618 423.794 510.765 428.147L462.677 435.402C462.677 435.402 455.981 469.636 445.894 481.156C435.808 492.676 440.839 492.91 437.141 498.436C433.443 503.963 439.27 504.947 433.115 505.906C426.961 506.866 413.624 500.308 413.062 494.524C412.501 488.74 415.872 485.157 417.369 483.565C418.866 481.973 421.91 467.572 424.134 464.411C426.357 461.25 432.983 424.698 432.983 424.698C432.983 424.698 440.94 406.668 453.623 404.35C466.307 402.033 480.077 394.774 480.077 394.774" fill="#2F2E41"/>
<path d="M535.5 274C548.479 274 559 263.703 559 251C559 238.297 548.479 228 535.5 228C522.521 228 512 238.297 512 251C512 263.703 522.521 274 535.5 274Z" fill="#A0616A"/>
<path d="M547.699 264.885C547.699 264.885 544.212 279.084 549.523 286.362C554.835 293.641 514 290.176 514 290.176C514 290.176 525.053 267.135 520.975 261.777C516.897 256.419 547.699 264.885 547.699 264.885Z" fill="#A0616A"/>
<path d="M496.557 287.176C491.718 292.348 493.367 321.675 493.367 321.675L496.459 347.865C496.459 347.865 492.76 352.616 493.969 354.512C495.179 356.408 497.156 358.28 493.34 359.169C489.526 360.058 480.731 361.485 483.546 365.651C484.466 366.831 485.449 367.959 486.494 369.029C487.392 369.983 488.458 371.091 489.667 372.326C492.496 375.201 496.095 378.736 500.088 382.465C501.219 383.528 502.378 384.601 503.565 385.683C518.796 399.546 537.736 414.218 541.654 407.177C548.216 395.381 552.776 393.697 552.475 383.656C552.173 373.615 560.62 347.848 560.62 347.848C560.62 347.848 570.441 303.871 556.601 290.763L554.437 287.28C553.433 285.661 551.947 284.4 550.191 283.678C548.435 282.955 546.498 282.806 544.654 283.252C537.898 284.876 527.542 287.119 523.055 286.757C516.123 286.195 517.642 283.327 517.642 283.327C517.642 283.327 501.397 282.004 496.557 287.176Z" fill="#0D6EFD"/>
<path d="M474.508 381C474.508 381 446.273 388.065 450.415 398.022C454.558 407.978 479 389.782 479 389.782L474.508 381Z" fill="#A0616A"/>
<path d="M548.523 259.037C547.947 258.357 548.517 257.362 549.018 256.627C551.705 252.691 552.217 247.091 549.262 243.342C548.097 241.947 546.64 240.81 544.989 240.007C542.671 238.809 540.139 238.05 537.531 237.774C536.143 237.754 534.771 237.49 533.479 236.995C532.663 236.591 528.813 235.276 527.986 234.893C526.17 234.05 523.642 234.414 522.478 232.814C521.364 231.282 522.404 229.184 523.486 227.631C525.95 224.094 532.184 221.161 536.464 220.233C539.712 219.528 543.102 220.519 546.111 221.903C549.582 223.582 552.873 225.591 555.939 227.901C560.149 230.944 564.297 234.317 566.826 238.795C569.355 243.272 569.964 249.104 567.108 253.391C566.513 254.283 565.785 255.089 565.228 256.005C563.868 258.239 563.623 260.941 562.662 263.364C561.948 265.135 560.861 266.74 559.471 268.076C558.081 269.411 556.42 270.449 554.594 271.119C551.669 272.174 548.07 272.466 546.341 275L545.535 269.718C545.324 269.051 545.354 268.335 545.62 267.688C545.885 267.041 546.37 266.502 546.994 266.162L551.139 262.756C551.965 262.208 552.592 261.42 552.93 260.503C553.827 256.854 549.483 260.173 548.523 259.037Z" fill="#2F2E41"/>
<path opacity="0.1" d="M507.551 359.584L489 371.641C492.679 375.335 497.648 380.115 503.084 385C508.233 382.248 513.484 379.269 518.183 376.275C535.37 365.322 550.107 337.819 556.709 324.477C563.312 311.135 557.938 300.859 557.938 300.859C553.564 298.935 548.936 297.642 544.193 297.019C535.589 295.731 507.551 359.584 507.551 359.584Z" fill="black"/>
<path opacity="0.1" d="M505.055 356.701L486 369.402C486.897 370.368 487.963 371.49 489.171 372.739C492 375.648 495.598 379.227 499.589 383C505.002 380.056 510.587 376.829 515.542 373.59C532.497 362.507 547.036 334.678 553.549 321.178C560.062 307.677 542.537 312.52 542.537 312.52C542.537 312.52 551.632 308.328 543.142 307.025C534.654 305.721 505.055 356.701 505.055 356.701Z" fill="black"/>
<path d="M556.958 299.82C556.958 299.82 562.28 309.994 555.741 323.201C549.202 336.408 534.607 363.634 517.585 374.477C500.563 385.32 476.209 396 476.209 396C476.209 396 473.899 383.44 470 382.027L507.056 357.955C507.056 357.955 534.824 294.744 543.346 296.019C548.042 296.636 552.626 297.916 556.958 299.82Z" fill="#0D6EFD"/>
<path d="M482 435.076V498H488V434L482 435.076Z" fill="#3F3D56"/>
<path d="M491.869 473C491.869 473 506.037 526.376 496.969 534C496.969 534 485.067 500.232 476 504.59L478.833 473H491.869Z" fill="#36334A"/>
<path d="M596.431 358L526.141 360.182C526.141 360.182 463.962 421.291 515.327 439.842C515.327 439.842 578.588 450.209 593.727 438.205C593.727 438.205 612.651 362.91 596.431 358ZM593.187 378.187L518.03 383.098C518.03 383.098 523.438 364.547 545.066 364.547C566.693 364.547 591.024 359.636 593.187 371.094C595.349 382.553 593.187 378.187 593.187 378.187Z" fill="#3F3D56"/>
<path d="M580.5 552C619.436 552 651 516.406 651 472.5C651 428.594 619.436 393 580.5 393C541.564 393 510 428.594 510 472.5C510 516.406 541.564 552 580.5 552Z" fill="#36334A"/>
<path d="M583.5 532C613.047 532 637 505.361 637 472.5C637 439.639 613.047 413 583.5 413C553.953 413 530 439.639 530 472.5C530 505.361 553.953 532 583.5 532Z" fill="#3F3D56"/>
<path d="M597.382 471.047C597.381 470.011 597.277 468.978 597.072 467.962L637 448.109L634.287 442.173L593.953 461.713C593.546 461.297 593.097 460.924 592.613 460.6L592.644 460.606L604.438 402.236L594.005 402L587.07 459.443L587.735 459.582C587.197 459.692 586.674 459.87 586.18 460.11L551.297 424.504L546.367 431.379L582.207 464.168C581.308 465.885 580.768 467.764 580.619 469.695L530.086 490.205L529 498.841L581.676 476.81C582.167 478.022 582.864 479.141 583.735 480.12L567.533 535H573.502L587.102 482.353C587.706 482.546 588.336 482.646 588.97 482.65C590.195 482.639 591.391 482.282 592.42 481.622L620.719 518.809L629.402 512.872L596.244 476.855C597.006 475.013 597.392 473.038 597.382 471.047Z" fill="#36334A"/>
</svg>
